<?xml version="1.0" encoding="UTF-8" standalone="no"?>
<!-- Creator: CorelDRAW 2019 (64-Bit) -->

<svg
   xml:space="preserve"
   width="120mm"
   height="80.946999mm"
   version="1.1"
   style="clip-rule:evenodd;fill-rule:evenodd;image-rendering:optimizeQuality;shape-rendering:geometricPrecision;text-rendering:geometricPrecision"
   viewBox="0 0 12000 8094.6999"
   id="svg71"
   sodipodi:docname="Logo.svg"
   inkscape:version="1.1.1 (3bf5ae0d25, 2021-09-20)"
   inkscape:export-filename="C:\Users\PC\Documents\P_R_O_J_E_K_T_I\AMSCG\Slike\Logo\LogoVeci.png"
   inkscape:export-xdpi="72"
   inkscape:export-ydpi="72"
   xmlns:inkscape="http://www.inkscape.org/namespaces/inkscape"
   xmlns:sodipodi="http://sodipodi.sourceforge.net/DTD/sodipodi-0.dtd"
   xmlns="http://www.w3.org/2000/svg"
   xmlns:svg="http://www.w3.org/2000/svg"><sodipodi:namedview
   id="namedview73"
   pagecolor="#ffffff"
   bordercolor="#666666"
   borderopacity="1.0"
   inkscape:pageshadow="2"
   inkscape:pageopacity="0.0"
   inkscape:pagecheckerboard="0"
   inkscape:document-units="mm"
   showgrid="false"
   inkscape:zoom="1.2810466"
   inkscape:cx="240.81872"
   inkscape:cy="158.85449"
   inkscape:window-width="1440"
   inkscape:window-height="829"
   inkscape:window-x="-8"
   inkscape:window-y="-8"
   inkscape:window-maximized="1"
   inkscape:current-layer="_2898932668400"
   inkscape:snap-bbox="true" />
 <defs
   id="defs4">
  <style
   type="text/css"
   id="style2">
   <![CDATA[
    .str0 {stroke:#454364;stroke-width:17.64;stroke-miterlimit:2.613}
    .str1 {stroke:#403E6D;stroke-width:7.62;stroke-miterlimit:2.613}
    .fil3 {fill:none}
    .fil5 {fill:none;fill-rule:nonzero}
    .fil2 {fill:#FEFEFE}
    .fil1 {fill:#FFF212}
    .fil0 {fill:#454364}
    .fil6 {fill:#FFF212;fill-rule:nonzero}
    .fil4 {fill:#454364;fill-rule:nonzero}
   ]]>
  </style>
 </defs>
 <g
   id="Layer_x0020_1"
   inkscape:label="Layer 1"
   inkscape:groupmode="layer">
  <metadata
   id="CorelCorpID_0Corel-Layer" />
  <g
   id="_2898932668400"
   transform="matrix(2.8726009,0,0,2.8726009,-20103.338,-32595.403)">
   
   
   
   
   
   
   
   
   
   
   
   
   
   
   
   
   
   
   
   
   
   
   
   
   
   
   
   
   
   
   <g
   id="g886"
   transform="matrix(1.3924663,0,0,1.3924663,-5523.9632,-7922.9093)"
   inkscape:export-filename="C:\Users\PC\Documents\P_R_O_J_E_K_T_I\AMSCG\Slike\Logo\logo.png"
   inkscape:export-xdpi="72"
   inkscape:export-ydpi="72"><path
     class="fil0"
     d="m 10492.87,13838.69 c 828.42,0 1500,453.02 1500,1011.85 0,558.83 -671.58,1011.83 -1500,1011.83 -828.44,0 -1500,-453 -1500,-1011.83 0,-558.83 671.56,-1011.85 1500,-1011.85 z"
     id="path7"
     style="fill:#00214d;fill-opacity:1" /><path
     class="fil1"
     d="m 10492.87,14100.12 c 669.54,0 1212.31,335.97 1212.31,750.41 0,414.45 -542.77,750.41 -1212.31,750.41 -669.55,0 -1212.31,-335.96 -1212.31,-750.41 0,-414.44 542.76,-750.41 1212.31,-750.41 z"
     id="path9"
     style="fill:#ffd200;fill-opacity:1" /><path
     class="fil0"
     d="m 11043.29,15355.61 c 51.14,0 100.42,-7.72 146.73,-22.15 l -273.92,5.64 c 40.58,10.78 83.16,16.51 127.19,16.51 z m 216.59,-49.98 c 29.6,-14.5 57.55,-31.91 83.44,-51.79 l -572.37,19.81 c 14.18,9.42 28.92,18.13 44.08,26.09 z m 117.16,-80.21 c 23.61,-21.75 45.16,-45.82 64.19,-71.79 l -787.52,11.06 c 13.82,17.85 28.92,34.78 45.07,50.52 z m 81.82,-97.48 c 14.09,-22.08 26.53,-45.35 37.06,-69.59 l -899.9,11.86 c 7.74,16.65 16.43,32.82 25.91,48.37 z m 47.72,-96.23 c 9.91,-27.15 17.55,-55.46 22.59,-84.61 l -969.3,12.78 c 4.25,21.21 9.94,41.97 16.76,62.05 z m 26.36,-110.5 c 2.3,-19.26 3.52,-38.89 3.52,-58.77 l -0.06,-6.22 -986.16,13.6 c 0.2,13.83 1.06,27.58 2.36,41.11 z m 2.45,-90.6 c -1.91,-29.49 -6.37,-58.3 -13.26,-86.12 l -960.84,13.67 c -4.35,20.07 -7.46,40.75 -9.26,61.68 z m -20.27,-111.62 c -8.09,-26.45 -18.27,-52.03 -30.48,-76.44 l -889.42,14.02 c -7.74,16.75 -14.5,34.09 -20.35,51.8 z m -44.14,-101.88 c -14.39,-25.03 -30.93,-48.73 -49.35,-70.74 l -768.02,14.07 c -11.41,14.69 -21.93,30.07 -31.66,46.01 z m -72.69,-96.78 c -28.1,-29.11 -59.67,-54.82 -94.14,-76.36 l -544.71,15.28 c -21.69,15.26 -42.02,32.38 -60.94,50.87 z m -140.96,-102.23 c -64.76,-31.27 -137.34,-48.81 -214.04,-48.81 -68.91,0 -134.49,14.18 -194.05,39.7 z"
     id="path11"
     style="fill:#00214d;fill-opacity:1" /><path
     class="fil0"
     d="m 9933.62,15355.61 c -51.13,0 -100.39,-7.72 -146.71,-22.15 l 273.91,5.64 c -40.56,10.78 -83.16,16.51 -127.2,16.51 z m -216.56,-49.98 c -29.6,-14.5 -57.57,-31.91 -83.46,-51.79 l 572.38,19.81 c -14.19,9.42 -28.93,18.13 -44.09,26.09 z m -117.18,-80.21 c -23.61,-21.75 -45.17,-45.82 -64.17,-71.79 l 787.51,11.06 c -13.83,17.85 -28.93,34.78 -45.06,50.52 z m -81.82,-97.48 c -14.1,-22.08 -26.53,-45.35 -37.05,-69.59 l 899.89,11.86 c -7.72,16.65 -16.45,32.82 -25.91,48.37 z m -47.71,-96.23 c -9.92,-27.15 -17.56,-55.46 -22.6,-84.61 l 969.29,12.78 c -4.25,21.21 -9.91,41.97 -16.75,62.05 z m -26.38,-110.5 c -2.29,-19.26 -3.52,-38.89 -3.52,-58.77 l 0.07,-6.22 986.17,13.6 c -0.21,13.83 -1.07,27.58 -2.38,41.11 z m -2.44,-90.6 c 1.91,-29.49 6.39,-58.3 13.25,-86.12 l 960.85,13.67 c 4.35,20.07 7.46,40.75 9.28,61.68 z m 20.26,-111.62 c 8.09,-26.45 18.28,-52.03 30.48,-76.44 l 889.44,14.02 c 7.72,16.75 14.48,34.09 20.34,51.8 z m 44.15,-101.88 c 14.41,-25.03 30.93,-48.73 49.35,-70.74 l 768.02,14.07 c 11.41,14.69 21.92,30.07 31.66,46.01 z m 72.71,-96.78 c 28.08,-29.11 59.65,-54.82 94.12,-76.36 l 544.71,15.28 c 21.69,15.26 42.04,32.38 60.96,50.87 z m 140.94,-102.23 c 64.75,-31.27 137.34,-48.81 214.03,-48.81 68.92,0 134.49,14.18 194.08,39.7 z"
     id="path13"
     style="fill:#00214d;fill-opacity:1" /><path
     class="fil2"
     d="m 10418.36,15307.29 -22.39,66.57 c -55.87,-8.81 -93.5,-20.97 -142.23,-45.43 l 22.59,-68.16 c -42,-22.07 -80.2,-50.38 -113.36,-83.71 l -60.59,42.96 c -39,-38.65 -62.25,-69.96 -87.79,-118.96 l 61.96,-44.54 c -20.18,-40.67 -34.57,-84.75 -42.1,-131.12 h -77.82 c -4.27,-27.05 -5.49,-46.91 -5.74,-74.39 0.25,-27.45 1.47,-47.34 5.74,-74.36 h 77.82 c 7.51,-46.37 21.94,-90.41 42.15,-131.09 l -62.01,-44.57 c 25.54,-48.97 48.79,-80.31 87.79,-118.96 l 60.59,42.96 c 33.14,-33.33 71.36,-61.6 113.36,-83.65 l -22.59,-68.23 c 48.73,-24.45 86.36,-36.61 142.23,-45.4 l 22.37,66.53 c 23.64,-3.76 47.87,-5.71 72.56,-5.71 24.69,0 48.9,2 72.56,5.73 l 22.38,-66.55 c 55.85,8.79 93.51,20.95 142.22,45.4 l -22.58,68.23 c 41.97,22.05 80.22,50.32 113.37,83.63 l 60.55,-42.94 c 39.02,38.65 62.25,69.99 87.81,118.96 l -62.01,44.57 c 20.26,40.66 34.62,84.74 42.15,131.09 h 77.8 c 4.27,27.02 5.51,46.91 5.79,74.36 -0.28,27.48 -1.52,47.34 -5.79,74.39 h -77.8 c -7.48,46.37 -21.87,90.45 -42.1,131.12 l 61.96,44.54 c -25.56,49 -48.79,80.31 -87.81,118.96 l -60.55,-42.94 c -33.13,33.33 -71.4,61.64 -113.37,83.69 l 22.58,68.16 c -48.71,24.46 -86.37,36.62 -142.22,45.43 l -22.4,-66.6 c -23.64,3.74 -47.85,5.73 -72.54,5.73 -24.69,0 -48.9,-1.97 -72.54,-5.7 z"
     id="path15"
     style="fill:#ffffff;fill-opacity:1" /><path
     class="fil3 str0"
     d="m 10418.36,15307.29 -22.39,66.57 c -55.87,-8.81 -93.5,-20.97 -142.23,-45.43 l 22.59,-68.16 c -42,-22.07 -80.2,-50.38 -113.36,-83.71 l -60.59,42.96 c -39,-38.65 -62.25,-69.96 -87.79,-118.96 l 61.96,-44.54 c -20.18,-40.67 -34.57,-84.75 -42.1,-131.12 h -77.82 c -4.27,-27.05 -5.49,-46.91 -5.74,-74.39 0.25,-27.45 1.47,-47.34 5.74,-74.36 h 77.82 c 7.51,-46.37 21.94,-90.41 42.15,-131.09 l -62.01,-44.57 c 25.54,-48.97 48.79,-80.31 87.79,-118.96 l 60.59,42.96 c 33.14,-33.33 71.36,-61.6 113.36,-83.65 l -22.59,-68.23 c 48.73,-24.45 86.36,-36.61 142.23,-45.4 l 22.37,66.53 c 23.64,-3.76 47.87,-5.71 72.56,-5.71 24.69,0 48.9,2 72.56,5.73 l 22.38,-66.55 c 55.85,8.79 93.51,20.95 142.22,45.4 l -22.58,68.23 c 41.97,22.05 80.22,50.32 113.37,83.63 l 60.55,-42.94 c 39.02,38.65 62.25,69.99 87.81,118.96 l -62.01,44.57 c 20.26,40.66 34.62,84.74 42.15,131.09 h 77.8 c 4.27,27.02 5.51,46.91 5.79,74.36 -0.28,27.48 -1.52,47.34 -5.79,74.39 h -77.8 c -7.48,46.37 -21.87,90.45 -42.1,131.12 l 61.96,44.54 c -25.56,49 -48.79,80.31 -87.81,118.96 l -60.55,-42.94 c -33.13,33.33 -71.4,61.64 -113.37,83.69 l 22.58,68.16 c -48.71,24.46 -86.37,36.62 -142.22,45.43 l -22.4,-66.6 c -23.64,3.74 -47.85,5.73 -72.54,5.73 -24.69,0 -48.9,-1.97 -72.54,-5.7 z"
     id="path17"
     style="stroke:#00214d;stroke-opacity:1" /><path
     class="fil1"
     d="m 9733.32,14552.67 h 1519.07 c 36.11,0 65.65,30.27 65.65,67.27 v 461.19 c 0,37 -29.54,67.26 -65.65,67.26 H 9733.32 c -36.1,0 -65.63,-30.26 -65.63,-67.26 v -461.19 c 0,-37 29.53,-67.27 65.63,-67.27 z"
     id="path19"
     style="fill:#ffd200;fill-opacity:1" /><path
     class="fil3 str0"
     d="m 9733.32,14552.67 h 1519.07 c 36.11,0 65.65,30.27 65.65,67.27 v 461.19 c 0,37 -29.54,67.26 -65.65,67.26 H 9733.32 c -36.1,0 -65.63,-30.26 -65.63,-67.26 v -461.19 c 0,-37 29.53,-67.27 65.63,-67.27 z"
     id="path21"
     style="stroke:#00214d;stroke-opacity:1" /><path
     class="fil4"
     d="m 10317.87,15035.34 h -74.74 l -29.67,-84.03 h -135.92 l -28.03,84.03 h -72.82 l 132.45,-369.79 h 72.58 z m -126.44,-146.27 -46.86,-137.26 -45.88,137.26 z m 161.92,146.27 v -369.79 h 102.72 l 61.71,252.27 60.95,-252.27 h 102.96 v 369.79 h -63.7 v -291.1 l -67.53,291.1 h -66.12 l -67.28,-291.1 v 291.1 z m 379.2,-120.28 66.78,-7.14 c 3.95,24.43 12.12,42.33 24.48,53.79 12.27,11.39 28.8,17.14 49.69,17.14 22.1,0 38.78,-5.07 49.96,-15.34 11.24,-10.14 16.88,-22.01 16.88,-35.65 0,-8.75 -2.38,-16.17 -7.14,-22.28 -4.65,-6.2 -12.92,-11.52 -24.69,-16 -8,-3.09 -26.38,-8.46 -54.95,-16.22 -36.83,-9.89 -62.61,-22.11 -77.41,-36.59 -20.91,-20.29 -31.36,-45.08 -31.36,-74.38 0,-18.84 4.89,-36.42 14.71,-52.85 9.83,-16.37 24.01,-28.85 42.45,-37.48 18.51,-8.51 40.75,-12.82 66.88,-12.82 42.77,0 74.81,10.14 96.43,30.5 21.56,20.4 32.87,47.53 33.98,81.51 l -68.66,3.27 c -2.94,-19.02 -9.24,-32.72 -18.92,-40.96 -9.65,-8.36 -24.15,-12.48 -43.45,-12.48 -19.93,0 -35.61,4.39 -46.87,13.36 -7.27,5.64 -10.93,13.32 -10.93,22.87 0,8.79 3.42,16.3 10.22,22.47 8.62,7.94 29.69,16.19 63.08,24.71 33.42,8.62 58.11,17.48 74.11,26.62 16,9.2 28.53,21.68 37.6,37.62 9.03,15.94 13.53,35.58 13.53,58.9 0,21.19 -5.38,41.07 -16.21,59.5 -10.85,18.51 -26.13,32.28 -45.9,41.22 -19.82,9.05 -44.5,13.54 -74.04,13.54 -42.99,0 -76,-10.77 -99.05,-32.37 -23.02,-21.62 -36.77,-53.15 -41.2,-94.46 z"
     id="path23"
     style="fill:#00214d;fill-opacity:1" /><path
     class="fil5 str1"
     d="m 10317.87,15035.34 h -74.74 l -29.67,-84.03 h -135.92 l -28.03,84.03 h -72.82 l 132.45,-369.79 h 72.58 z m -126.44,-146.27 -46.86,-137.26 -45.88,137.26 z m 161.92,146.27 v -369.79 h 102.72 l 61.71,252.27 60.95,-252.27 h 102.96 v 369.79 h -63.7 v -291.1 l -67.53,291.1 h -66.12 l -67.28,-291.1 v 291.1 z m 379.2,-120.28 66.78,-7.14 c 3.95,24.43 12.12,42.33 24.48,53.79 12.27,11.39 28.8,17.14 49.69,17.14 22.1,0 38.78,-5.07 49.96,-15.34 11.24,-10.14 16.88,-22.01 16.88,-35.65 0,-8.75 -2.38,-16.17 -7.14,-22.28 -4.65,-6.2 -12.92,-11.52 -24.69,-16 -8,-3.09 -26.38,-8.46 -54.95,-16.22 -36.83,-9.89 -62.61,-22.11 -77.41,-36.59 -20.91,-20.29 -31.36,-45.08 -31.36,-74.38 0,-18.84 4.89,-36.42 14.71,-52.85 9.83,-16.37 24.01,-28.85 42.45,-37.48 18.51,-8.51 40.75,-12.82 66.88,-12.82 42.77,0 74.81,10.14 96.43,30.5 21.56,20.4 32.87,47.53 33.98,81.51 l -68.66,3.27 c -2.94,-19.02 -9.24,-32.72 -18.92,-40.96 -9.65,-8.36 -24.15,-12.48 -43.45,-12.48 -19.93,0 -35.61,4.39 -46.87,13.36 -7.27,5.64 -10.93,13.32 -10.93,22.87 0,8.79 3.42,16.3 10.22,22.47 8.62,7.94 29.69,16.19 63.08,24.71 33.42,8.62 58.11,17.48 74.11,26.62 16,9.2 28.53,21.68 37.6,37.62 9.03,15.94 13.53,35.58 13.53,58.9 0,21.19 -5.38,41.07 -16.21,59.5 -10.85,18.51 -26.13,32.28 -45.9,41.22 -19.82,9.05 -44.5,13.54 -74.04,13.54 -42.99,0 -76,-10.77 -99.05,-32.37 -23.02,-21.62 -36.77,-53.15 -41.2,-94.46 z"
     id="path25"
     style="stroke:#00214d;stroke-opacity:1" /><path
     class="fil6"
     d="m 10043.25,15707.47 22.4,13.89 c -7.19,12.63 -15.96,21.15 -26.35,25.55 -10.34,4.37 -22.22,4.87 -35.56,1.48 -16.51,-4.21 -28.66,-13.3 -36.42,-27.3 -7.76,-13.99 -9.16,-30.79 -4.18,-50.37 5.27,-20.7 14.71,-35.41 28.31,-44.14 13.62,-8.75 29.13,-10.9 46.54,-6.45 15.23,3.83 26.43,11.51 33.66,22.9 4.29,6.78 6.61,15.49 6.9,26.15 l -26.38,-0.39 c 0.17,-6.82 -1.6,-12.69 -5.34,-17.59 -3.69,-4.95 -8.88,-8.23 -15.57,-9.93 -9.22,-2.34 -17.54,-0.94 -24.97,4.2 -7.41,5.18 -13.01,15.15 -16.79,29.97 -3.99,15.73 -4.01,27.67 -0.07,35.8 3.97,8.08 10.47,13.3 19.53,15.59 6.67,1.7 12.95,1.03 18.85,-1.97 5.9,-3.03 11.02,-8.82 15.44,-17.39 z"
     id="path27"
     style="fill:#ffd200;fill-opacity:1" /><path
     class="fil6"
     d="m 10116.25,15693.49 18.9,3.22 c 12.26,2.1 19.98,2.89 23.22,2.38 3.22,-0.51 5.92,-1.87 8.09,-4.12 2.14,-2.25 3.56,-5.25 4.22,-9.05 0.71,-4.27 0.15,-7.91 -1.67,-10.87 -1.82,-3.03 -4.74,-5.24 -8.77,-6.63 -2,-0.64 -8.22,-1.87 -18.55,-3.63 l -19.95,-3.4 z m -38.03,68.66 21.62,-126.51 53.77,9.17 c 13.53,2.33 23.17,5.14 28.89,8.45 5.75,3.32 9.96,8.21 12.65,14.64 2.69,6.44 3.4,13.39 2.11,20.88 -1.61,9.52 -5.75,16.83 -12.37,22.08 -6.64,5.24 -15.67,7.71 -27.05,7.4 4.97,4.19 8.94,8.52 11.88,12.96 2.94,4.48 6.61,12.16 11.03,23.04 l 11.23,27.32 -30.56,-5.21 -13.75,-30.69 c -4.89,-10.94 -8.3,-17.91 -10.3,-20.89 -1.97,-2.99 -4.24,-5.15 -6.8,-6.59 -2.53,-1.4 -6.73,-2.62 -12.59,-3.63 l -5.18,-0.87 -9.04,52.83 z"
     id="path29"
     style="fill:#ffd200;fill-opacity:1" /><polygon
     class="fil6"
     points="10922.87,15645.26 10929.31,15672.99 10992.07,15658.41 10996.96,15679.49 10934.18,15694.05 10942.07,15728.07 11011.95,15711.88 11016.85,15732.96 10921.72,15755.01 10892.72,15629.96 10985.44,15608.47 10990.33,15629.6 "
     id="polygon31"
     style="fill:#ffd200;fill-opacity:1" /><polygon
     class="fil6"
     points="10245.62,15657.74 10288.3,15748.8 10297.85,15663.6 10321.76,15666.28 10307.48,15793.86 10281.65,15790.96 10239.53,15701.99 10230.2,15785.19 10206.28,15782.54 10220.57,15654.94 "
     id="polygon33"
     style="fill:#ffd200;fill-opacity:1" /><path
     class="fil6"
     d="m 10798.62,15702.04 18.91,-3.22 c 12.25,-2.1 19.82,-3.93 22.7,-5.47 2.87,-1.56 4.95,-3.73 6.24,-6.59 1.31,-2.85 1.63,-6.13 0.96,-9.92 -0.73,-4.27 -2.44,-7.49 -5.17,-9.72 -2.72,-2.23 -6.2,-3.34 -10.46,-3.34 -2.13,0.08 -8.35,1 -18.73,2.76 l -19.94,3.39 z m -13.06,77.38 -21.62,-126.5 53.79,-9.2 c 13.51,-2.32 23.51,-2.85 30.05,-1.61 6.52,1.22 12.07,4.42 16.77,9.58 4.67,5.22 7.66,11.53 8.92,19.01 1.63,9.48 0.2,17.78 -4.33,24.95 -4.53,7.12 -12.2,12.45 -23.01,15.95 6.05,2.3 11.21,5.07 15.46,8.28 4.27,3.24 10.27,9.29 18.06,18.06 l 19.67,22.05 -30.55,5.21 -23.2,-24.36 c -8.22,-8.71 -13.77,-14.16 -16.63,-16.28 -2.87,-2.15 -5.72,-3.47 -8.58,-3.97 -2.87,-0.47 -7.22,-0.23 -13.12,0.77 l -5.17,0.88 9.03,52.83 z"
     id="path35"
     style="fill:#ffd200;fill-opacity:1" /><polygon
     class="fil6"
     points="10365.28,15690.25 10364.09,15718.67 10428.46,15721.41 10427.55,15743.01 10363.16,15740.27 10361.66,15775.18 10433.32,15778.25 10432.4,15799.85 10334.85,15795.69 10340.32,15667.45 10435.42,15671.5 10434.5,15693.21 "
     id="polygon37"
     style="fill:#ffd200;fill-opacity:1" /><path
     class="fil6"
     d="m 10660.96,15728.75 c 1.63,14.45 6.2,25.05 13.7,31.74 7.51,6.69 16.4,9.48 26.65,8.32 10.29,-1.16 18.27,-5.79 24.04,-13.92 5.75,-8.13 7.83,-19.6 6.17,-34.4 -1.64,-14.61 -6.06,-25.18 -13.27,-31.62 -7.23,-6.5 -16.15,-9.13 -26.79,-7.96 -10.59,1.18 -18.75,5.79 -24.43,13.82 -5.68,8 -7.7,19.34 -6.07,34.02 z m -26.42,3.86 c -1.49,-13.02 -0.76,-24.13 2.14,-33.4 2.19,-6.82 5.49,-13.08 9.93,-18.81 4.44,-5.73 9.5,-10.19 15.21,-13.34 7.57,-4.25 16.56,-6.95 26.94,-8.11 18.77,-2.12 34.49,2.02 47.08,12.42 12.59,10.4 20.03,25.97 22.34,46.76 2.32,20.59 -1.45,37.34 -11.34,50.21 -9.91,12.89 -24.24,20.4 -42.96,22.5 -18.98,2.12 -34.71,-1.98 -47.21,-12.34 -12.48,-10.29 -19.88,-25.6 -22.13,-45.89 z"
     id="path39"
     style="fill:#ffd200;fill-opacity:1" /><path
     class="fil6"
     d="m 10564.54,15751.87 -1.19,-21.62 55.79,-3.05 2.8,51.07 c -5.12,5.52 -12.74,10.6 -22.82,15.14 -10.06,4.57 -20.37,7.15 -30.9,7.72 -13.41,0.72 -25.27,-1.45 -35.55,-6.53 -10.27,-5.09 -18.21,-12.7 -23.81,-22.89 -5.55,-10.21 -8.7,-21.43 -9.37,-33.74 -0.73,-13.34 1.41,-25.37 6.46,-36.03 5.02,-10.71 12.76,-19.12 23.25,-25.25 7.98,-4.68 18.1,-7.38 30.35,-8.04 15.91,-0.86 28.52,1.78 37.83,7.98 9.31,6.18 15.58,15.08 18.77,26.72 l -25.41,6.2 c -2.17,-6.2 -5.84,-10.96 -11.03,-14.35 -5.17,-3.37 -11.49,-4.82 -18.96,-4.44 -11.3,0.62 -20.1,4.7 -26.38,12.27 -6.29,7.51 -9.05,18.3 -8.28,32.41 0.84,15.21 4.87,26.47 12.03,33.7 7.19,7.24 16.24,10.55 27.2,9.97 5.43,-0.3 10.79,-1.69 16.13,-4.12 5.34,-2.43 9.89,-5.23 13.62,-8.49 l -0.88,-16.26 z"
     id="path41"
     style="fill:#ffd200;fill-opacity:1" /><polygon
     class="fil6"
     points="10491.56,14052.28 10493.57,13945.66 10455.48,13944.93 10455.89,13923.22 10557.88,13925.15 10557.47,13946.86 10519.49,13946.15 10517.47,14052.75 "
     id="polygon43"
     style="fill:#ffd200;fill-opacity:1" /><path
     class="fil6"
     d="m 10593.22,13990.62 c -0.64,14.54 2.23,25.69 8.58,33.48 6.37,7.8 14.72,11.92 25.03,12.39 10.34,0.45 18.96,-2.87 25.91,-10.03 6.97,-7.15 10.77,-18.13 11.45,-33.01 0.65,-14.7 -2.07,-25.79 -8.21,-33.31 -6.11,-7.51 -14.5,-11.52 -25.18,-11.99 -10.69,-0.5 -19.43,2.76 -26.32,9.82 -6.82,7.01 -10.59,17.91 -11.26,32.65 z m -26.7,-0.33 c 0.58,-13.04 3.02,-23.91 7.31,-32.6 3.22,-6.41 7.45,-12.1 12.72,-17.05 5.3,-4.98 10.98,-8.56 17.09,-10.81 8.16,-3.02 17.44,-4.29 27.87,-3.84 18.9,0.84 33.75,7.38 44.56,19.6 10.82,12.25 15.79,28.79 14.85,49.68 -0.92,20.7 -7.29,36.63 -19.07,47.83 -11.77,11.2 -27.07,16.35 -45.92,15.51 -19.05,-0.84 -33.97,-7.33 -44.7,-19.48 -10.72,-12.14 -15.62,-28.41 -14.71,-48.84 z"
     id="path45"
     style="fill:#ffd200;fill-opacity:1" /><path
     class="fil6"
     d="m 10341.11,13993.11 c 0.82,14.5 4.79,25.33 11.93,32.43 7.12,7.1 15.83,10.36 26.13,9.78 10.33,-0.6 18.59,-4.78 24.79,-12.59 6.19,-7.81 8.86,-19.15 8.02,-34 -0.83,-14.69 -4.68,-25.46 -11.54,-32.32 -6.87,-6.86 -15.61,-10 -26.27,-9.39 -10.67,0.6 -19.07,4.76 -25.16,12.44 -6.12,7.7 -8.73,18.92 -7.9,33.65 z m -26.61,2.38 c -0.76,-13.04 0.58,-24.13 3.96,-33.2 2.56,-6.7 6.2,-12.76 10.94,-18.25 4.76,-5.45 10.06,-9.62 15.92,-12.49 7.8,-3.82 16.9,-6.03 27.35,-6.63 18.87,-1.07 34.29,3.93 46.3,15.02 11.99,11.06 18.6,27.02 19.8,47.89 1.16,20.68 -3.54,37.17 -14.11,49.5 -10.6,12.32 -25.32,19.03 -44.12,20.1 -19.07,1.07 -34.53,-3.88 -46.44,-14.86 -11.93,-11.01 -18.45,-26.68 -19.6,-47.08 z"
     id="path47"
     style="fill:#ffd200;fill-opacity:1" /><path
     class="fil6"
     d="m 10757.15,14026.83 25.32,1.29 c 0.26,8.58 2.41,15.21 6.39,19.77 4.02,4.62 9.91,7.51 17.72,8.67 8.24,1.2 14.72,0.36 19.43,-2.46 4.72,-2.9 7.43,-6.67 8.11,-11.36 0.43,-2.97 -0.06,-5.67 -1.52,-8.06 -1.44,-2.36 -4.25,-4.65 -8.39,-6.84 -2.87,-1.48 -9.41,-4.35 -19.73,-8.6 -13.23,-5.43 -22.24,-11.05 -27.07,-16.86 -6.73,-8.13 -9.37,-17.2 -7.91,-27.26 0.96,-6.48 3.68,-12.22 8.19,-17.33 4.5,-5.08 10.4,-8.6 17.76,-10.51 7.34,-1.95 15.87,-2.17 25.63,-0.73 15.96,2.36 27.44,7.63 34.45,15.81 7.01,8.19 9.86,18.14 8.51,29.88 l -25.78,-2.68 c -0.12,-6.7 -1.78,-11.74 -4.98,-15.13 -3.17,-3.4 -8.36,-5.62 -15.58,-6.69 -7.45,-1.09 -13.52,-0.43 -18.2,2 -3,1.56 -4.74,3.99 -5.21,7.29 -0.45,2.98 0.43,5.75 2.66,8.26 2.83,3.19 10.26,7.16 22.31,11.99 12.03,4.78 20.8,9.2 26.29,13.21 5.54,4.05 9.55,9.05 12.12,14.99 2.58,5.96 3.28,12.95 2.09,20.98 -1.08,7.27 -4.1,13.79 -9.1,19.54 -4.98,5.75 -11.41,9.61 -19.22,11.63 -7.85,1.99 -17.33,2.16 -28.33,0.53 -16.05,-2.38 -27.82,-7.92 -35.35,-16.6 -7.48,-8.69 -11.05,-20.27 -10.61,-34.73 z"
     id="path49"
     style="fill:#ffd200;fill-opacity:1" /><polygon
     class="fil6"
     points="10261.63,13963.6 10248.5,14066.97 10223.73,14069.98 10186.35,13972.73 10198.53,14073.02 10174.63,14075.94 10159.15,13948.54 10197.65,13943.84 10231.32,14027.96 10243.63,13938.26 10282.22,13933.57 10297.68,14060.99 10273.79,14063.89 "
     id="polygon51"
     style="fill:#ffd200;fill-opacity:1" /><path
     class="fil6"
     d="m 10953.2,14054.06 -6.63,-50.38 -27.51,42.57 z m 35.2,60.17 -27.5,-6.29 -4.42,-30.95 -50.04,-11.43 -16.79,26.06 -26.81,-6.13 77.39,-113.98 26.67,6.13 z"
     id="path53"
     style="fill:#ffd200;fill-opacity:1" /><polygon
     class="fil6"
     points="11020.08,14124.23 11013.2,13988.1 11040.11,13996.2 11043.8,14096.54 11101.31,14014.65 11127.65,14022.58 11046.57,14132.21 "
     id="polygon55"
     style="fill:#ffd200;fill-opacity:1" /><path
     class="fil6"
     d="m 9996.47,14048.52 c 3.23,14.16 8.96,24.15 17.2,29.96 8.21,5.82 17.35,7.58 27.41,5.28 10.08,-2.32 17.5,-7.82 22.3,-16.56 4.81,-8.75 5.54,-20.38 2.23,-34.87 -3.3,-14.33 -8.87,-24.33 -16.79,-29.93 -7.89,-5.61 -17.05,-7.24 -27.47,-4.84 -10.41,2.36 -17.98,7.85 -22.72,16.45 -4.74,8.6 -5.45,20.12 -2.16,34.51 z m -25.83,6.78 c -2.94,-12.72 -3.45,-23.85 -1.63,-33.37 1.37,-7.04 3.95,-13.65 7.7,-19.82 3.78,-6.21 8.32,-11.18 13.62,-14.97 7.04,-5.09 15.64,-8.8 25.82,-11.13 18.43,-4.23 34.5,-1.87 48.2,7.03 13.69,8.9 22.84,23.53 27.52,43.9 4.61,20.21 2.72,37.26 -5.62,51.18 -8.38,13.92 -21.75,22.99 -40.13,27.2 -18.62,4.27 -34.7,1.97 -48.28,-6.86 -13.58,-8.84 -22.65,-23.24 -27.2,-43.16 z"
     id="path57"
     style="fill:#ffd200;fill-opacity:1" /><polygon
     class="fil6"
     points="11165.33,14059.02 11155.23,14085.62 11215.46,14108.52 11207.78,14128.73 11147.53,14105.84 11135.13,14138.47 11202.14,14163.97 11194.46,14184.18 11103.22,14149.49 11148.84,14029.51 11237.76,14063.33 11230.06,14083.64 "
     id="polygon59"
     style="fill:#ffd200;fill-opacity:1" /><polygon
     class="fil6"
     points="9915.99,14139.11 9883.9,14037.39 9847.59,14048.85 9841.05,14028.15 9938.32,13997.46 9944.86,14018.18 9908.59,14029.61 9940.68,14131.3 "
     id="polygon61"
     style="fill:#ffd200;fill-opacity:1" /><polygon
     class="fil6"
     points="11310.92,14120.25 11256.78,14094.87 11265.98,14075.21 11351.05,14115.08 11342.51,14133.31 11242.07,14181.9 11308.19,14212.87 11299.01,14232.47 11204.62,14188.22 11214.52,14167.05 "
     id="polygon63"
     style="fill:#ffd200;fill-opacity:1" /><path
     class="fil6"
     d="m 9720.29,14075.13 24.09,-9.53 25.54,64.65 c 4.08,10.27 7.02,16.82 8.82,19.6 2.94,4.49 6.95,7.45 12.01,8.84 5.04,1.43 10.94,0.83 17.65,-1.82 6.87,-2.71 11.46,-6.16 13.82,-10.32 2.38,-4.18 3.08,-8.43 2.2,-12.78 -0.92,-4.36 -3.21,-11.24 -6.97,-20.7 l -26.1,-66.04 24.11,-9.53 24.79,62.7 c 5.66,14.33 9.03,24.73 10.06,31.16 1.01,6.41 0.6,12.36 -1.28,17.83 -1.91,5.44 -5.3,10.55 -10.21,15.27 -4.91,4.74 -12.08,8.96 -21.54,12.69 -11.41,4.51 -20.56,6.61 -27.5,6.33 -6.92,-0.32 -12.93,-1.9 -18.01,-4.76 -5.08,-2.85 -9.08,-6.37 -11.99,-10.55 -4.25,-6.22 -9.05,-16 -14.33,-29.36 z"
     id="path65"
     style="fill:#ffd200;fill-opacity:1" /><path
     class="fil6"
     d="m 9690.44,14174.61 -36.2,-35.63 4.48,50.49 z m 64.78,25.74 -25.55,11.97 -22.52,-21.65 -46.46,21.77 2.79,30.89 -24.9,11.67 -9.2,-137.42 24.82,-11.65 z"
     id="path67"
     style="fill:#ffd200;fill-opacity:1" /></g>
  </g>
 </g>
</svg>
