<?xml version="1.0" encoding="UTF-8" standalone="no"?>
<!-- Generator: Adobe Illustrator 23.1.0, SVG Export Plug-In . SVG Version: 6.00 Build 0)  -->

<svg
   version="1.1"
   id="Layer_1"
   x="0px"
   y="0px"
   viewBox="0 0 1024 1024"
   xml:space="preserve"
   sodipodi:docname="road_assistance.svg"
   inkscape:version="1.1.1 (3bf5ae0d25, 2021-09-20)"
   width="1024"
   height="1024"
   inkscape:export-filename="C:\Users\PC\Documents\P_R_O_J_E_K_T_I\AMSCG\Slike\Glavne ikonice\road_assistance.png"
   inkscape:export-xdpi="96"
   inkscape:export-ydpi="96"
   xmlns:inkscape="http://www.inkscape.org/namespaces/inkscape"
   xmlns:sodipodi="http://sodipodi.sourceforge.net/DTD/sodipodi-0.dtd"
   xmlns="http://www.w3.org/2000/svg"
   xmlns:svg="http://www.w3.org/2000/svg"><defs
   id="defs37" /><sodipodi:namedview
   id="namedview35"
   pagecolor="#ffffff"
   bordercolor="#666666"
   borderopacity="1.0"
   inkscape:pageshadow="2"
   inkscape:pageopacity="0.0"
   inkscape:pagecheckerboard="0"
   showgrid="false"
   inkscape:zoom="0.35107422"
   inkscape:cx="599.58831"
   inkscape:cy="502.7427"
   inkscape:window-width="1280"
   inkscape:window-height="953"
   inkscape:window-x="-8"
   inkscape:window-y="-8"
   inkscape:window-maximized="1"
   inkscape:current-layer="Layer_1"
   width="1024px" />
<style
   type="text/css"
   id="style2">
	.st0{fill:none;stroke:#FFD200;stroke-width:10;stroke-linecap:round;stroke-miterlimit:10;}
</style>







<g
   id="g869"
   style="stroke-width:13;stroke-miterlimit:10;stroke-dasharray:none"
   transform="matrix(1.00299,0,0,1.00299,-1.5308752,-1.5308752)"><g
     id="g8"
     style="stroke-width:6.24755;stroke-miterlimit:10;stroke-dasharray:none"
     transform="matrix(2.0808162,0,0,2.0808162,-20.688952,-20.688952)"
     inkscape:export-filename="C:\Users\PC\Desktop\path32.png"
     inkscape:export-xdpi="96"
     inkscape:export-ydpi="96">
	<g
   id="g6"
   style="stroke-width:6.24755;stroke-miterlimit:10;stroke-dasharray:none">
		<path
   class="st0"
   d="m 256,13.8 c -32.7,0 -64.4,6.4 -94.3,19 -28.8,12.2 -54.8,29.7 -77,51.9 -22.2,22.2 -39.7,48.2 -51.9,77 -12.6,29.9 -19,61.6 -19,94.3 0,32.7 6.4,64.4 19,94.3 12.2,28.8 29.7,54.8 51.9,77 22.2,22.2 48.2,39.7 77,51.9 29.9,12.6 61.6,19 94.3,19 32.7,0 64.4,-6.4 94.3,-19 28.8,-12.2 54.8,-29.7 77,-51.9 22.2,-22.2 39.7,-48.2 51.9,-77 12.6,-29.9 19,-61.6 19,-94.3 0,-32.7 -6.4,-64.4 -19,-94.3 C 467,132.9 449.5,106.9 427.3,84.7 405.1,62.5 379.1,45 350.3,32.8 320.4,20.2 288.7,13.8 256,13.8 Z"
   id="path4"
   style="stroke-width:6.24755;stroke-miterlimit:10;stroke-dasharray:none" />
	</g>
</g><path
     class="st0"
     d="m 138.2,730.63612 c 135.2,3.73398 347.2,30.36983 418.60001,58.25034 20.2,7.96586 122.8,-37.09104 318.8,-152.84494 2,-1.24467 2.8,-3.23614 3,-4.48079 0.2,-1.24468 0.4,-3.48509 -1,-5.9744 -17.8,-30.8677 -50,-42.81649 -78.6,-28.87625 l -158.2,76.67141 c -17.2,8.46373 -55.4,4.97866 -73,-1.99148 L 466.8,649.4839"
     id="path10"
     style="stroke-width:13;stroke-miterlimit:10;stroke-dasharray:none"
     inkscape:export-filename="C:\Users\PC\Desktop\path32.png"
     inkscape:export-xdpi="96"
     inkscape:export-ydpi="96" /><g
     id="g14"
     style="stroke-width:7.02221;stroke-miterlimit:10;stroke-dasharray:none"
     transform="matrix(1.8443584,0,0,1.858206,49.466932,30.72684)"
     inkscape:export-filename="C:\Users\PC\Desktop\path32.png"
     inkscape:export-xdpi="96"
     inkscape:export-ydpi="96">
	<path
   class="st0"
   d="M 188.7,333.4 305,319.2 c 7.6,0 13.9,-6.2 13.9,-13.9 0,-22.8 -17.9,-27.1 -40.7,-27.8 -19.9,-0.6 -34.8,8.4 -44.8,8.9 -16.6,0.8 -22.9,-2.2 -33.2,-5.7 -15.9,-5.3 -34.8,-14.9 -56.3,-14.9 -36.7,0 -78.5,38.9 -80.1,40.8"
   id="path12"
   style="stroke-width:7.02221;stroke-miterlimit:10;stroke-dasharray:none" />
</g><g
     id="g20"
     style="stroke-width:6.5;stroke-miterlimit:10;stroke-dasharray:none"
     inkscape:export-filename="C:\Users\PC\Desktop\path32.png"
     inkscape:export-xdpi="96"
     inkscape:export-ydpi="96"
     transform="scale(2)">
	<g
   id="g18"
   style="stroke-width:6.5;stroke-miterlimit:10;stroke-dasharray:none">
		<path
   class="st0"
   d="m 357.9,217 c -19.3,0 -35,15.7 -35,35 0,19.3 15.7,35 35,35 19.3,0 35,-15.7 35,-35 0,-19.2 -15.8,-35 -35,-35 z"
   id="path16"
   style="stroke-width:6.5;stroke-miterlimit:10;stroke-dasharray:none" />
	</g>
</g><g
     id="g24"
     style="stroke-width:6.5;stroke-miterlimit:10;stroke-dasharray:none"
     inkscape:export-filename="C:\Users\PC\Desktop\path32.png"
     inkscape:export-xdpi="96"
     inkscape:export-ydpi="96"
     transform="scale(2)">
	<path
   class="st0"
   d="M 98,251.1 83.8,236.9 c -5.7,-5.7 -8.9,-13.4 -8.9,-21.5 v -22.7 c 0,-8.5 3.3,-16.5 9.3,-22.5 5.9,-5.9 14.1,-9.3 22.5,-9.3 7.8,0 15.4,-2.4 21.8,-6.8 L 170,125.5 c 5.7,-3.9 12.3,-6 19.2,-6 h 73.2 c 7.2,0 14.4,2 20.6,5.7 l 66,39.4 c 19.1,2.2 94,12.7 94,45.6 V 252 c 0,4.1 -3.3,7.5 -7.5,7.5 h -19.2"
   id="path22"
   style="stroke-width:6.5;stroke-miterlimit:10;stroke-dasharray:none" />
</g><line
     class="st0"
     x1="438.39999"
     y1="504"
     x2="590"
     y2="504"
     id="line26"
     style="stroke-width:13;stroke-miterlimit:10;stroke-dasharray:none"
     inkscape:export-filename="C:\Users\PC\Desktop\path32.png"
     inkscape:export-xdpi="96"
     inkscape:export-ydpi="96" /><g
     id="g30"
     style="stroke-width:6.5;stroke-miterlimit:10;stroke-dasharray:none"
     inkscape:export-filename="C:\Users\PC\Desktop\path32.png"
     inkscape:export-xdpi="96"
     inkscape:export-ydpi="96"
     transform="scale(2)">
	<path
   class="st0"
   d="m 191.9,252.2 c 0,-19.6 -15.9,-35.5 -35.5,-35.5 -16.7,0 -30.7,11.5 -34.5,27"
   id="path28"
   style="stroke-width:6.5;stroke-miterlimit:10;stroke-dasharray:none" />
</g><path
     class="st0"
     d="M 334.4,325.2 347,370 588.40001,386 c 0,0 62.2,11 49,-40.2"
     id="path32"
     style="stroke-width:13;stroke-miterlimit:10;stroke-dasharray:none"
     inkscape:export-filename="C:\Users\PC\Desktop\path32.png"
     inkscape:export-xdpi="96"
     inkscape:export-ydpi="96" /></g>
</svg>
