<?xml version="1.0" encoding="UTF-8" standalone="no"?>
<!-- Generator: Adobe Illustrator 23.1.0, SVG Export Plug-In . SVG Version: 6.00 Build 0)  -->

<svg
   version="1.1"
   id="Layer_1"
   x="0px"
   y="0px"
   viewBox="0 0 1024 1024"
   xml:space="preserve"
   sodipodi:docname="garage.svg"
   width="1024"
   height="1024"
   inkscape:version="1.1.1 (3bf5ae0d25, 2021-09-20)"
   xmlns:inkscape="http://www.inkscape.org/namespaces/inkscape"
   xmlns:sodipodi="http://sodipodi.sourceforge.net/DTD/sodipodi-0.dtd"
   xmlns="http://www.w3.org/2000/svg"
   xmlns:svg="http://www.w3.org/2000/svg"><defs
   id="defs17">
	
	
	
</defs><sodipodi:namedview
   id="namedview15"
   pagecolor="#ffffff"
   bordercolor="#666666"
   borderopacity="1.0"
   inkscape:pageshadow="2"
   inkscape:pageopacity="0.0"
   inkscape:pagecheckerboard="0"
   showgrid="false"
   inkscape:zoom="0.70214844"
   inkscape:cx="409.45758"
   inkscape:cy="543.3324"
   inkscape:window-width="1920"
   inkscape:window-height="1129"
   inkscape:window-x="-8"
   inkscape:window-y="-8"
   inkscape:window-maximized="1"
   inkscape:current-layer="Layer_1" />
<style
   type="text/css"
   id="style2">
	.st0{fill:none;stroke:#FFD200;stroke-width:10;stroke-linecap:round;stroke-linejoin:bevel;stroke-miterlimit:10;}
	.st1{fill:none;stroke:#FFD200;stroke-width:10;stroke-linecap:round;stroke-linejoin:round;stroke-miterlimit:10;}
</style>
<g
   id="g842"
   transform="matrix(2.1173336,0,0,2.1173336,-28.261084,8.4586867)"
   style="stroke-width:8.52715;stroke-miterlimit:10;stroke-dasharray:none;stroke:#00214d;stroke-opacity:1"><path
     class="st0"
     d="m 279.31106,328.4 c 119.9,3.2 213.4,29.9 213.4,62.3 0,34.6 -106.4,62.6 -237.6,62.6 -131.2,0 -237.500002,-28 -237.500002,-62.6 0,-23.6 49.4,-44.1 122.500002,-54.8"
     id="path4"
     style="stroke-width:8.52715;stroke-miterlimit:10;stroke-dasharray:none;stroke:#00214d;stroke-opacity:1" /><g
     id="g8"
     transform="matrix(1.0950767,0,0,1.0950767,-22.958689,-38.77228)"
     style="stroke-width:7.7868;stroke-miterlimit:10;stroke-dasharray:none;stroke:#00214d;stroke-opacity:1">
		<path
   class="st1"
   d="M 289.4,302.2 H 247 V 402.8 H 177.7 V 120.7 h 111.7 c 62.6,0 96.3,44.4 96.3,90.7 0,46.4 -33.7,90.8 -96.3,90.8 z M 286.3,182.9 H 247 V 240 h 39.2 c 19,0 30.1,-13.9 30.1,-28.5 0.1,-14.7 -11,-28.6 -30,-28.6 z"
   id="path6"
   style="stroke-width:7.7868;stroke-miterlimit:10;stroke-dasharray:none;stroke:#00214d;stroke-opacity:1" />
	</g><polyline
     class="st0"
     points="469.9,115.1 254.9,60.4 251.6,60.4 36.5,115.1  "
     id="polyline10"
     transform="matrix(0.78714177,0,0,1.0144691,70.220121,-38.360068)"
     style="stroke-width:9.54241;stroke-miterlimit:10;stroke-dasharray:none;stroke:#00214d;stroke-opacity:1" /></g>
</svg>
