<?xml version="1.0" encoding="UTF-8" standalone="no"?>
<!-- Generator: Adobe Illustrator 23.1.0, SVG Export Plug-In . SVG Version: 6.00 Build 0)  -->

<svg
   version="1.1"
   id="Layer_1"
   x="0px"
   y="0px"
   viewBox="0 0 1024 1024"
   xml:space="preserve"
   sodipodi:docname="electric_station.svg"
   width="1024"
   height="1024"
   inkscape:version="1.1.1 (3bf5ae0d25, 2021-09-20)"
   xmlns:inkscape="http://www.inkscape.org/namespaces/inkscape"
   xmlns:sodipodi="http://sodipodi.sourceforge.net/DTD/sodipodi-0.dtd"
   xmlns="http://www.w3.org/2000/svg"
   xmlns:svg="http://www.w3.org/2000/svg"><defs
   id="defs47" /><sodipodi:namedview
   id="namedview45"
   pagecolor="#ffffff"
   bordercolor="#666666"
   borderopacity="1.0"
   inkscape:pageshadow="2"
   inkscape:pageopacity="0.0"
   inkscape:pagecheckerboard="0"
   showgrid="false"
   inkscape:zoom="0.70214844"
   inkscape:cx="353.91377"
   inkscape:cy="493.48539"
   inkscape:window-width="1920"
   inkscape:window-height="1129"
   inkscape:window-x="-8"
   inkscape:window-y="-8"
   inkscape:window-maximized="1"
   inkscape:current-layer="Layer_1" />
<style
   type="text/css"
   id="style2">
	.st0{fill:none;stroke:#FFD200;stroke-width:10;stroke-miterlimit:10;}
	.st1{fill:none;stroke:#FFD200;stroke-width:10;stroke-linecap:round;stroke-miterlimit:10;}
</style>




<g
   id="g884"
   transform="matrix(2.1913387,0,0,2.1913387,-35.231235,6.239028)"
   style="stroke-width:8.21415694;stroke-miterlimit:10;stroke-dasharray:none;fill:none;fill-opacity:1;stroke:#00214d;stroke-opacity:1"><g
     id="g6"
     transform="translate(-6)"
     style="stroke-width:8.21415694;stroke-miterlimit:10;stroke-dasharray:none;fill:none;fill-opacity:1;stroke:#00214d;stroke-opacity:1">
	<path
   class="st0"
   d="M 204.7,320.9"
   id="path4"
   style="stroke-width:8.21415694;stroke-miterlimit:10;stroke-dasharray:none;fill:none;fill-opacity:1;stroke:#00214d;stroke-opacity:1" />
</g><path
     class="st1"
     d="m 414.83147,289.2 c 39.85004,11.2 64.41778,26.6 64.41778,43.4 0,34.5 -102.72025,62.5 -229.52463,62.5 C 122.92025,395.1 20.2,367.1 20.2,332.6 20.2,316 43.897233,300.9 82.586592,289.7"
     id="path8"
     style="stroke-width:8.21415694;stroke-miterlimit:10;stroke-dasharray:none;fill:none;fill-opacity:1;stroke:#00214d;stroke-opacity:1" /><path
     class="st0"
     d="m 237.87871,271.56975 c 0,0 -33.38478,-153.24203 138.43388,-162.11087"
     id="path10"
     style="stroke-width:8.21415694;stroke-miterlimit:10;stroke-dasharray:none;fill:none;fill-opacity:1;stroke:#00214d;stroke-opacity:1" /><g
     id="g20"
     transform="translate(18,-52)"
     style="stroke-width:8.21415694;stroke-miterlimit:10;stroke-dasharray:none;fill:none;fill-opacity:1;stroke:#00214d;stroke-opacity:1">
	<path
   class="st0"
   d="m 354,160.4 v 0 c 0,-23 18.8,-41.9 41.9,-41.9 h 11.6 c 9.1,0 9.1,83.7 0,83.7 h -11.6 c -23,0 -41.9,-18.8 -41.9,-41.8 z"
   id="path12"
   style="stroke-width:8.21415694;stroke-miterlimit:10;stroke-dasharray:none;fill:none;fill-opacity:1;stroke:#00214d;stroke-opacity:1" />
	<g
   id="g18"
   style="stroke-width:8.21415694;stroke-miterlimit:10;stroke-dasharray:none;fill:none;fill-opacity:1;stroke:#00214d;stroke-opacity:1">
		<line
   class="st1"
   x1="414.39999"
   y1="138.89999"
   x2="445.70001"
   y2="138.89999"
   id="line14"
   style="stroke-width:8.21415694;stroke-miterlimit:10;stroke-dasharray:none;fill:none;fill-opacity:1;stroke:#00214d;stroke-opacity:1" />
		<line
   class="st1"
   x1="414.39999"
   y1="181.8"
   x2="445.70001"
   y2="181.8"
   id="line16"
   style="stroke-width:8.21415694;stroke-miterlimit:10;stroke-dasharray:none;fill:none;fill-opacity:1;stroke:#00214d;stroke-opacity:1" />
	</g>
</g><g
     id="g42"
     transform="translate(-6)"
     style="stroke-width:8.21415694;stroke-miterlimit:10;stroke-dasharray:none;fill:none;fill-opacity:1;stroke:#00214d;stroke-opacity:1">
	<g
   id="g26"
   style="stroke-width:8.21415694;stroke-miterlimit:10;stroke-dasharray:none;fill:none;fill-opacity:1;stroke:#00214d;stroke-opacity:1">
		<g
   id="g24"
   style="stroke-width:8.21415694;stroke-miterlimit:10;stroke-dasharray:none;fill:none;fill-opacity:1;stroke:#00214d;stroke-opacity:1">
			<path
   class="st1"
   d="m 175.6,289.3 c -16.7,0 -30.3,13.7 -30.3,30.3 0,16.7 13.7,30.3 30.3,30.3 16.6,0 30.4,-13.7 30.4,-30.3 -0.1,-16.7 -13.6,-30.3 -30.4,-30.3 z"
   id="path22"
   style="stroke-width:8.21415694;stroke-miterlimit:10;stroke-dasharray:none;fill:none;fill-opacity:1;stroke:#00214d;stroke-opacity:1" />
		</g>
	</g>
	<g
   id="g32"
   style="stroke-width:8.21415694;stroke-miterlimit:10;stroke-dasharray:none;fill:none;fill-opacity:1;stroke:#00214d;stroke-opacity:1">
		<g
   id="g30"
   style="stroke-width:8.21415694;stroke-miterlimit:10;stroke-dasharray:none;fill:none;fill-opacity:1;stroke:#00214d;stroke-opacity:1">
			<path
   class="st1"
   d="m 333.2,289.3 c -16.7,0 -30.3,13.7 -30.3,30.3 0,16.7 13.7,30.3 30.3,30.3 16.7,0 30.4,-13.7 30.4,-30.3 0,-16.6 -13.6,-30.3 -30.4,-30.3 z"
   id="path28"
   style="stroke-width:8.21415694;stroke-miterlimit:10;stroke-dasharray:none;fill:none;fill-opacity:1;stroke:#00214d;stroke-opacity:1" />
		</g>
	</g>
	<g
   id="g36"
   style="stroke-width:8.21415694;stroke-miterlimit:10;stroke-dasharray:none;fill:none;fill-opacity:1;stroke:#00214d;stroke-opacity:1">
		<path
   class="st1"
   d="M 128.4,318.9 117,307.6 c -4.6,-4.6 -7.1,-10.6 -7.1,-17 v -18 c 0,-6.8 2.6,-13.1 7.4,-17.9 4.7,-4.7 11.3,-7.4 17.9,-7.4 6.2,0 12.2,-1.9 17.4,-5.4 l 33,-22.7 c 4.5,-3.1 9.7,-4.7 15.2,-4.7 h 58.1 c 5.8,0 11.4,1.5 16.4,4.5 l 52.6,31.2 c 15.2,1.7 74.7,10.1 74.7,36.2 v 33.3 c 0,3.3 -2.6,5.9 -5.9,5.9 h -15.2"
   id="path34"
   style="stroke-width:8.21415694;stroke-miterlimit:10;stroke-dasharray:none;fill:none;fill-opacity:1;stroke:#00214d;stroke-opacity:1" />
	</g>
	<line
   class="st1"
   x1="224.7"
   y1="319.60001"
   x2="284.89999"
   y2="319.60001"
   id="line38"
   style="stroke-width:8.21415694;stroke-miterlimit:10;stroke-dasharray:none;fill:none;fill-opacity:1;stroke:#00214d;stroke-opacity:1" />
	<path
   class="st1"
   d="m 183.3,248.6 5,17.8 95.9,6.4 c 0,0 24.8,4.4 19.4,-16.1"
   id="path40"
   style="stroke-width:8.21415694;stroke-miterlimit:10;stroke-dasharray:none;fill:none;fill-opacity:1;stroke:#00214d;stroke-opacity:1" />
</g></g>
</svg>
