<?xml version="1.0" encoding="UTF-8" standalone="no"?>
<!-- Generator: Adobe Illustrator 19.0.0, SVG Export Plug-In . SVG Version: 6.00 Build 0)  -->

<svg
   version="1.1"
   id="Layer_1"
   x="0px"
   y="0px"
   viewBox="0 0 512 512"
   style="enable-background:new 0 0 512 512;"
   xml:space="preserve"
   sodipodi:docname="marker_garage.svg"
   inkscape:version="1.1.1 (3bf5ae0d25, 2021-09-20)"
   inkscape:export-filename="C:\Users\PC\Desktop\marker_parking.png"
   inkscape:export-xdpi="96"
   inkscape:export-ydpi="96"
   xmlns:inkscape="http://www.inkscape.org/namespaces/inkscape"
   xmlns:sodipodi="http://sodipodi.sourceforge.net/DTD/sodipodi-0.dtd"
   xmlns="http://www.w3.org/2000/svg"
   xmlns:svg="http://www.w3.org/2000/svg"><defs
   id="defs45" /><sodipodi:namedview
   id="namedview43"
   pagecolor="#ffffff"
   bordercolor="#666666"
   borderopacity="1.0"
   inkscape:pageshadow="2"
   inkscape:pageopacity="0.0"
   inkscape:pagecheckerboard="0"
   showgrid="false"
   inkscape:zoom="1.4042969"
   inkscape:cx="263.8331"
   inkscape:cy="152.74548"
   inkscape:window-width="1920"
   inkscape:window-height="1129"
   inkscape:window-x="-8"
   inkscape:window-y="-8"
   inkscape:window-maximized="1"
   inkscape:current-layer="Layer_1" />
<path
   style="fill:#00214d;fill-opacity:1;stroke-width:0.969335"
   d="m 437.7928,189.92679 c 0,104.06598 -178.5355,321.43621 -178.5355,321.43621 0,0 -178.535496,-217.37023 -178.535496,-321.43621 0,-104.065952 79.933696,-188.4274852 178.535496,-188.4274852 98.60181,0 178.5355,84.3625282 178.5355,188.4274852 z"
   id="path2-4" /><path
   style="fill:#ffd200;fill-opacity:1;stroke-width:0.884341"
   d="m 420.72629,191.10553 c 0,95.77126 -161.46898,295.81569 -161.46898,295.81569 0,0 -161.468995,-200.04443 -161.468995,-295.81569 0,-95.771241 72.292695,-173.408618 161.468995,-173.408618 89.17629,0 161.46898,77.638293 161.46898,173.408618 z"
   id="path2" />




<g
   id="g12"
   transform="matrix(0.92411015,0,0,0.96128171,28.219781,-3.2388105)"
   style="fill:#00214d;fill-opacity:1">
</g>
<g
   id="g14"
   transform="matrix(0.92411015,0,0,0.96128171,28.219781,-3.2388105)"
   style="fill:#00214d;fill-opacity:1">
</g>
<g
   id="g16"
   transform="matrix(0.92411015,0,0,0.96128171,28.219781,-3.2388105)"
   style="fill:#00214d;fill-opacity:1">
</g>
<g
   id="g18"
   transform="matrix(0.92411015,0,0,0.96128171,28.219781,-3.2388105)"
   style="fill:#00214d;fill-opacity:1">
</g>
<g
   id="g20"
   transform="matrix(0.92411015,0,0,0.96128171,28.219781,-3.2388105)"
   style="fill:#00214d;fill-opacity:1">
</g>
<g
   id="g22"
   transform="matrix(0.92411015,0,0,0.96128171,28.219781,-3.2388105)"
   style="fill:#00214d;fill-opacity:1">
</g>
<g
   id="g24"
   transform="matrix(0.92411015,0,0,0.96128171,28.219781,-3.2388105)"
   style="fill:#00214d;fill-opacity:1">
</g>
<g
   id="g26"
   transform="matrix(0.92411015,0,0,0.96128171,28.219781,-3.2388105)"
   style="fill:#00214d;fill-opacity:1">
</g>
<g
   id="g28"
   transform="matrix(0.92411015,0,0,0.96128171,28.219781,-3.2388105)"
   style="fill:#00214d;fill-opacity:1">
</g>
<g
   id="g30"
   transform="matrix(0.92411015,0,0,0.96128171,28.219781,-3.2388105)"
   style="fill:#00214d;fill-opacity:1">
</g>
<g
   id="g32"
   transform="matrix(0.92411015,0,0,0.96128171,28.219781,-3.2388105)"
   style="fill:#00214d;fill-opacity:1">
</g>
<g
   id="g34"
   transform="matrix(0.92411015,0,0,0.96128171,28.219781,-3.2388105)"
   style="fill:#00214d;fill-opacity:1">
</g>
<g
   id="g36"
   transform="matrix(0.92411015,0,0,0.96128171,28.219781,-3.2388105)"
   style="fill:#00214d;fill-opacity:1">
</g>
<g
   id="g38"
   transform="matrix(0.92411015,0,0,0.96128171,28.219781,-3.2388105)"
   style="fill:#00214d;fill-opacity:1">
</g>
<g
   id="g40"
   transform="matrix(0.92411015,0,0,0.96128171,28.219781,-3.2388105)"
   style="fill:#00214d;fill-opacity:1">
</g>
<style
   type="text/css"
   id="style42">
	.st0{fill:#FFD200;}
</style><g
   id="g842"
   transform="matrix(0.51692714,0,0,0.51692714,127.35763,58.831457)"
   style="fill:none;stroke:#00214d;stroke-width:19.3451;stroke-miterlimit:10;stroke-dasharray:none;stroke-opacity:1"><path
     class="st0"
     d="m 279.31106,328.4 c 119.9,3.2 213.4,29.9 213.4,62.3 0,34.6 -106.4,62.6 -237.6,62.6 -131.2,0 -237.500002,-28 -237.500002,-62.6 0,-23.6 49.4,-44.1 122.500002,-54.8"
     id="path4"
     style="fill:none;stroke:#00214d;stroke-width:19.3451;stroke-miterlimit:10;stroke-dasharray:none;stroke-opacity:1" /><g
     id="g8"
     transform="matrix(1.0950767,0,0,1.0950767,-22.958689,-38.77228)"
     style="fill:none;stroke:#00214d;stroke-width:17.6655;stroke-miterlimit:10;stroke-dasharray:none;stroke-opacity:1"><path
       class="st1"
       d="M 289.4,302.2 H 247 V 402.8 H 177.7 V 120.7 h 111.7 c 62.6,0 96.3,44.4 96.3,90.7 0,46.4 -33.7,90.8 -96.3,90.8 z M 286.3,182.9 H 247 V 240 h 39.2 c 19,0 30.1,-13.9 30.1,-28.5 0.1,-14.7 -11,-28.6 -30,-28.6 z"
       id="path6"
       style="fill:none;stroke:#00214d;stroke-width:17.6655;stroke-miterlimit:10;stroke-dasharray:none;stroke-opacity:1" /></g><polyline
     class="st0"
     points="469.9,115.1 254.9,60.4 251.6,60.4 36.5,115.1  "
     id="polyline10"
     transform="matrix(0.78714177,0,0,1.0144691,70.220121,-38.360068)"
     style="fill:none;stroke:#00214d;stroke-width:21.6483;stroke-miterlimit:10;stroke-dasharray:none;stroke-opacity:1" /></g></svg>
