<?xml version="1.0" encoding="UTF-8" standalone="no"?>
<!-- Generator: Adobe Illustrator 19.0.0, SVG Export Plug-In . SVG Version: 6.00 Build 0)  -->

<svg
   version="1.1"
   id="Layer_1"
   x="0px"
   y="0px"
   viewBox="0 0 512 512"
   style="enable-background:new 0 0 512 512;"
   xml:space="preserve"
   sodipodi:docname="marker_road_closed.svg"
   inkscape:version="1.1.1 (3bf5ae0d25, 2021-09-20)"
   inkscape:export-filename="C:\Users\PC\Desktop\marker_parking.png"
   inkscape:export-xdpi="96"
   inkscape:export-ydpi="96"
   xmlns:inkscape="http://www.inkscape.org/namespaces/inkscape"
   xmlns:sodipodi="http://sodipodi.sourceforge.net/DTD/sodipodi-0.dtd"
   xmlns="http://www.w3.org/2000/svg"
   xmlns:svg="http://www.w3.org/2000/svg"><defs
   id="defs45" /><sodipodi:namedview
   id="namedview43"
   pagecolor="#ffffff"
   bordercolor="#666666"
   borderopacity="1.0"
   inkscape:pageshadow="2"
   inkscape:pageopacity="0.0"
   inkscape:pagecheckerboard="0"
   showgrid="false"
   inkscape:zoom="1.4042969"
   inkscape:cx="401.98052"
   inkscape:cy="256"
   inkscape:window-width="1920"
   inkscape:window-height="1129"
   inkscape:window-x="-8"
   inkscape:window-y="-8"
   inkscape:window-maximized="1"
   inkscape:current-layer="Layer_1" />
<path
   style="fill:#00214d;fill-opacity:1;stroke-width:0.969335"
   d="m 437.7928,189.92679 c 0,104.06598 -178.5355,321.43621 -178.5355,321.43621 0,0 -178.535496,-217.37023 -178.535496,-321.43621 0,-104.065952 79.933696,-188.4274852 178.535496,-188.4274852 98.60181,0 178.5355,84.3625282 178.5355,188.4274852 z"
   id="path2-4" /><path
   style="fill:#ffd200;fill-opacity:1;stroke-width:0.930657"
   d="m 430.64024,189.92679 c 0,99.89778 -171.43838,308.56159 -171.43838,308.56159 0,0 -171.438393,-208.66381 -171.438393,-308.56159 0,-99.897767 76.756183,-180.880331 171.438393,-180.880331 94.68221,0 171.43838,80.98352 171.43838,180.880331 z"
   id="path2" />




<g
   id="g12"
   transform="matrix(0.92411015,0,0,0.96128171,28.219781,-3.2388105)">
</g>
<g
   id="g14"
   transform="matrix(0.92411015,0,0,0.96128171,28.219781,-3.2388105)">
</g>
<g
   id="g16"
   transform="matrix(0.92411015,0,0,0.96128171,28.219781,-3.2388105)">
</g>
<g
   id="g18"
   transform="matrix(0.92411015,0,0,0.96128171,28.219781,-3.2388105)">
</g>
<g
   id="g20"
   transform="matrix(0.92411015,0,0,0.96128171,28.219781,-3.2388105)">
</g>
<g
   id="g22"
   transform="matrix(0.92411015,0,0,0.96128171,28.219781,-3.2388105)">
</g>
<g
   id="g24"
   transform="matrix(0.92411015,0,0,0.96128171,28.219781,-3.2388105)">
</g>
<g
   id="g26"
   transform="matrix(0.92411015,0,0,0.96128171,28.219781,-3.2388105)">
</g>
<g
   id="g28"
   transform="matrix(0.92411015,0,0,0.96128171,28.219781,-3.2388105)">
</g>
<g
   id="g30"
   transform="matrix(0.92411015,0,0,0.96128171,28.219781,-3.2388105)">
</g>
<g
   id="g32"
   transform="matrix(0.92411015,0,0,0.96128171,28.219781,-3.2388105)">
</g>
<g
   id="g34"
   transform="matrix(0.92411015,0,0,0.96128171,28.219781,-3.2388105)">
</g>
<g
   id="g36"
   transform="matrix(0.92411015,0,0,0.96128171,28.219781,-3.2388105)">
</g>
<g
   id="g38"
   transform="matrix(0.92411015,0,0,0.96128171,28.219781,-3.2388105)">
</g>
<g
   id="g40"
   transform="matrix(0.92411015,0,0,0.96128171,28.219781,-3.2388105)">
</g>
<style
   type="text/css"
   id="style871">
	.st0{fill:#FFD200;}
</style><g
   id="g3646"
   transform="matrix(0.56156756,0,0,-0.56156756,124,315.99944)"><path
     id="path3648"
     style="fill:#ffffff;fill-opacity:1;fill-rule:nonzero;stroke:none"
     d="m 480.398,240.398 c 0,-132.551 -107.449,-240 -240,-240 -132.55,0 -240,107.449 -240,240 0,132.55 107.45,240 240,240 132.551,0 240,-107.45 240,-240 z" /><path
     id="path3650"
     style="fill:#000000;fill-opacity:1;fill-rule:nonzero;stroke:none"
     d="M 240.398,480.796 C 107.633,480.796 0,373.163 0,240.398 0,107.632 107.633,-0.001 240.398,-0.001 c 132.766,0 240.399,107.633 240.399,240.399 0,132.765 -107.633,240.398 -240.399,240.398 z m 0,-0.398 c 132.551,0 240,-107.45 240,-240 0,-132.551 -107.449,-240 -240,-240 -132.55,0 -240,107.449 -240,240 0,132.55 107.45,240 240,240 z" /><path
     id="path3652"
     style="fill:none;stroke:#c1121c;stroke-width:64.3168;stroke-linecap:butt;stroke-linejoin:miter;stroke-miterlimit:4;stroke-dasharray:none;stroke-opacity:1"
     d="m 440.238,240.398 c 0,-110.368 -89.472,-199.84 -199.84,-199.84 -110.367,0 -199.839,89.472 -199.839,199.84 0,110.367 89.472,199.839 199.839,199.839 110.368,0 199.84,-89.472 199.84,-199.839 z" /><path
     id="path3654"
     style="fill:#000000;fill-opacity:1;fill-rule:nonzero;stroke:none"
     d="m 23.832,456.511 v -0.024 h -0.023 z" /><path
     id="path3656"
     style="fill:#000000;fill-opacity:1;fill-rule:nonzero;stroke:none"
     d="m 23.809,456.511 h 0.023 v -0.023 h -0.023 z" /><path
     id="path3658"
     style="fill:#000000;fill-opacity:1;fill-rule:nonzero;stroke:none"
     d="m 23.809,456.487 v 0.024 l 0.023,-0.024 z m 0.023,0 -0.023,0.024 v -0.024 z" /><path
     id="path3660"
     style="fill:#000000;fill-opacity:1;fill-rule:nonzero;stroke:none"
     d="m 23.859,456.487 h -0.05 0.023 v 0.024 z" /><path
     id="path3662"
     style="fill:#000000;fill-opacity:1;fill-rule:nonzero;stroke:none"
     d="m 23.809,456.487 v 0.024 -0.024 l 0.023,0.024 z" /><path
     id="path3664"
     style="fill:#000000;fill-opacity:1;fill-rule:nonzero;stroke:none"
     d="m 23.809,456.511 h 0.023 v -0.023 h -0.023 z" /><path
     id="path3666"
     style="fill:#000000;fill-opacity:1;fill-rule:nonzero;stroke:none"
     d="m 23.859,456.511 v -0.047 h -0.05 z" /><path
     id="path3668"
     style="fill:#000000;fill-opacity:1;fill-rule:nonzero;stroke:none"
     d="m 23.809,456.511 h 0.051 v -0.047 h -0.051 z" /><path
     id="path3670"
     style="fill:#000000;fill-opacity:1;fill-rule:nonzero;stroke:none"
     d="m 23.809,456.464 v 0.047 l 0.05,-0.047 z m 0.05,0 -0.05,0.047 v -0.047 z" /><path
     id="path3672"
     style="fill:#000000;fill-opacity:1;fill-rule:nonzero;stroke:none"
     d="m 23.859,456.464 h -0.05 0.023 v 0.047 z" /><path
     id="path3674"
     style="fill:#000000;fill-opacity:1;fill-rule:nonzero;stroke:none"
     d="m 23.809,456.464 v 0.047 -0.047 l 0.05,0.047 z" /><path
     id="path3676"
     style="fill:#000000;fill-opacity:1;fill-rule:nonzero;stroke:none"
     d="m 23.809,456.511 h 0.051 v -0.047 h -0.051 z" /><path
     id="path3678"
     style="fill:#000000;fill-opacity:1;fill-rule:nonzero;stroke:none"
     d="m 23.859,456.511 v -0.047 h -0.05 z" /><path
     id="path3680"
     style="fill:#000000;fill-opacity:1;fill-rule:nonzero;stroke:none"
     d="m 23.809,456.511 h 0.051 v -0.047 h -0.051 z" /><path
     id="path3682"
     style="fill:#000000;fill-opacity:1;fill-rule:nonzero;stroke:none"
     d="m 23.809,456.464 v 0.047 l 0.05,-0.047 z m 0.05,0 -0.05,0.047 v -0.047 z" /><path
     id="path3684"
     style="fill:#000000;fill-opacity:1;fill-rule:nonzero;stroke:none"
     d="m 23.859,456.464 h -0.05 0.023 v 0.047 z" /><path
     id="path3686"
     style="fill:#000000;fill-opacity:1;fill-rule:nonzero;stroke:none"
     d="m 23.809,456.464 v 0.047 -0.047 l 0.05,0.047 z" /><path
     id="path3688"
     style="fill:#000000;fill-opacity:1;fill-rule:nonzero;stroke:none"
     d="m 23.809,456.511 h 0.051 v -0.047 h -0.051 z" /><path
     id="path3690"
     style="fill:#000000;fill-opacity:1;fill-rule:nonzero;stroke:none"
     d="m 23.859,456.511 v -0.047 h -0.05 z" /><path
     id="path3692"
     style="fill:#000000;fill-opacity:1;fill-rule:nonzero;stroke:none"
     d="m 23.809,456.511 h 0.051 v -0.047 h -0.051 z" /><path
     id="path3694"
     style="fill:#000000;fill-opacity:1;fill-rule:nonzero;stroke:none"
     d="m 23.809,456.464 v 0.047 l 0.05,-0.047 z m 0.05,0 -0.05,0.047 v -0.047 z" /><path
     id="path3696"
     style="fill:#000000;fill-opacity:1;fill-rule:nonzero;stroke:none"
     d="m 23.859,456.464 h -0.05 0.023 v 0.047 z" /><path
     id="path3698"
     style="fill:#000000;fill-opacity:1;fill-rule:nonzero;stroke:none"
     d="m 23.809,456.464 v 0.047 -0.047 l 0.05,0.047 z" /><path
     id="path3700"
     style="fill:#000000;fill-opacity:1;fill-rule:nonzero;stroke:none"
     d="m 23.809,456.511 h 0.051 v -0.047 h -0.051 z" /></g></svg>
