<?xml version="1.0" encoding="UTF-8" standalone="no"?>
<!-- Generator: Adobe Illustrator 19.0.0, SVG Export Plug-In . SVG Version: 6.00 Build 0)  -->

<svg
   version="1.1"
   id="Layer_1"
   x="0px"
   y="0px"
   viewBox="0 0 512 512"
   style="enable-background:new 0 0 512 512;"
   xml:space="preserve"
   sodipodi:docname="marker_caution.svg"
   inkscape:version="1.1.1 (3bf5ae0d25, 2021-09-20)"
   inkscape:export-filename="C:\Users\PC\Desktop\marker_parking.png"
   inkscape:export-xdpi="96"
   inkscape:export-ydpi="96"
   xmlns:inkscape="http://www.inkscape.org/namespaces/inkscape"
   xmlns:sodipodi="http://sodipodi.sourceforge.net/DTD/sodipodi-0.dtd"
   xmlns="http://www.w3.org/2000/svg"
   xmlns:svg="http://www.w3.org/2000/svg"><defs
   id="defs45" /><sodipodi:namedview
   id="namedview43"
   pagecolor="#ffffff"
   bordercolor="#666666"
   borderopacity="1.0"
   inkscape:pageshadow="2"
   inkscape:pageopacity="0.0"
   inkscape:pagecheckerboard="0"
   showgrid="false"
   inkscape:zoom="1.4042969"
   inkscape:cx="401.98052"
   inkscape:cy="266.6815"
   inkscape:window-width="1920"
   inkscape:window-height="1129"
   inkscape:window-x="-8"
   inkscape:window-y="-8"
   inkscape:window-maximized="1"
   inkscape:current-layer="Layer_1" />
<path
   style="fill:#00214d;fill-opacity:1;stroke-width:0.969335"
   d="m 437.7928,189.92679 c 0,104.06598 -178.5355,321.43621 -178.5355,321.43621 0,0 -178.535496,-217.37023 -178.535496,-321.43621 0,-104.065952 79.933696,-188.4274852 178.535496,-188.4274852 98.60181,0 178.5355,84.3625282 178.5355,188.4274852 z"
   id="path2-4" /><path
   style="fill:#ffd200;fill-opacity:1;stroke-width:0.930657"
   d="m 430.64024,189.92679 c 0,99.89778 -171.43838,308.56159 -171.43838,308.56159 0,0 -171.438393,-208.66381 -171.438393,-308.56159 0,-99.897767 76.756183,-180.880331 171.438393,-180.880331 94.68221,0 171.43838,80.98352 171.43838,180.880331 z"
   id="path2" />




<g
   id="g12"
   transform="matrix(0.92411015,0,0,0.96128171,28.219781,-3.2388105)">
</g>
<g
   id="g14"
   transform="matrix(0.92411015,0,0,0.96128171,28.219781,-3.2388105)">
</g>
<g
   id="g16"
   transform="matrix(0.92411015,0,0,0.96128171,28.219781,-3.2388105)">
</g>
<g
   id="g18"
   transform="matrix(0.92411015,0,0,0.96128171,28.219781,-3.2388105)">
</g>
<g
   id="g20"
   transform="matrix(0.92411015,0,0,0.96128171,28.219781,-3.2388105)">
</g>
<g
   id="g22"
   transform="matrix(0.92411015,0,0,0.96128171,28.219781,-3.2388105)">
</g>
<g
   id="g24"
   transform="matrix(0.92411015,0,0,0.96128171,28.219781,-3.2388105)">
</g>
<g
   id="g26"
   transform="matrix(0.92411015,0,0,0.96128171,28.219781,-3.2388105)">
</g>
<g
   id="g28"
   transform="matrix(0.92411015,0,0,0.96128171,28.219781,-3.2388105)">
</g>
<g
   id="g30"
   transform="matrix(0.92411015,0,0,0.96128171,28.219781,-3.2388105)">
</g>
<g
   id="g32"
   transform="matrix(0.92411015,0,0,0.96128171,28.219781,-3.2388105)">
</g>
<g
   id="g34"
   transform="matrix(0.92411015,0,0,0.96128171,28.219781,-3.2388105)">
</g>
<g
   id="g36"
   transform="matrix(0.92411015,0,0,0.96128171,28.219781,-3.2388105)">
</g>
<g
   id="g38"
   transform="matrix(0.92411015,0,0,0.96128171,28.219781,-3.2388105)">
</g>
<g
   id="g40"
   transform="matrix(0.92411015,0,0,0.96128171,28.219781,-3.2388105)">
</g>
<style
   type="text/css"
   id="style871">
	.st0{fill:#FFD200;}
</style><g
   id="g5498"
   transform="matrix(0.39839058,0,0,-0.41855905,123.69995,275.19994)"><path
     id="path5500"
     style="fill:#ffffff;fill-opacity:1;fill-rule:nonzero;stroke:none"
     d="m 338.867,594.5 c -7.512,0 -15.027,-2.867 -20.758,-8.598 -1.879,-1.879 -3.445,-3.953 -4.707,-6.152 l -15.246,-26.157 h -0.07 L 4.984,45.554 C 4.93,45.457 4.887,45.359 4.832,45.261 3.344,42.867 2.176,40.218 1.406,37.351 -2.789,21.695 6.504,5.597 22.164,1.402 c 2.586,-0.695 5.184,-1.012 7.738,-1 h 618.067 c 16.215,0 29.355,13.141 29.355,29.356 0,5.304 -1.414,10.281 -3.879,14.578 -0.019,0.031 -0.035,0.062 -0.05,0.097 l -304.368,528.41 c -3.863,6.665 -5.652,9.305 -9.406,13.059 -5.73,5.731 -13.242,8.598 -20.754,8.598 z" /><path
     id="path5502"
     style="fill:#c1121c;fill-opacity:1;fill-rule:nonzero;stroke:none"
     d="m 338.867,587.144 c -7.125,0.051 -14.949,-3.59 -18.781,-10.406 L 10.793,40.847 C 9.008,37.199 8.258,34.027 8.234,30.398 c 0,-6.496 2.875,-12.66 7.848,-16.84 4.383,-3.394 8.535,-5.16 14.121,-5.16 h 617.906 c 3.77,-0.035 7.547,0.871 10.977,3.133 6.453,3.898 10.402,10.883 10.41,18.426 -0.184,3.894 -1.144,8 -2.879,10.89 L 357.504,576.828 c -0.027,0.047 -0.059,0.094 -0.09,0.14 -0.031,0.047 -0.062,0.094 -0.094,0.145 -1.097,1.754 -2.472,3.305 -4.039,4.633 -3.59,3.109 -8.086,4.976 -12.824,5.316 -0.531,0.047 -1.062,0.078 -1.59,0.082 z M 30.203,8.398 H 28.68 30.234 Z M 338.547,480.933 574.25,72.398 H 102.512 Z" /><path
     id="path5504"
     style="fill:#000000;fill-opacity:1;fill-rule:nonzero;stroke:none"
     d="m 338.867,594.898 c -7.617,0 -15.23,-2.906 -21.039,-8.715 -1.906,-1.902 -3.492,-4.008 -4.773,-6.234 l -15.129,-25.957 h -0.071 L 4.641,45.754 C 4.574,45.636 4.527,45.535 4.48,45.453 2.977,43.031 1.797,40.351 1.02,37.457 -3.23,21.586 6.191,5.269 22.059,1.015 24.68,0.312 27.316,-0.008 29.902,0 h 618.067 c 16.429,0 29.758,13.328 29.758,29.758 0,5.375 -1.438,10.417 -3.934,14.773 -0.012,0.019 -0.027,0.051 -0.051,0.098 L 369.379,573.043 c -3.871,6.668 -5.695,9.363 -9.469,13.14 -5.808,5.809 -13.426,8.715 -21.039,8.715 z m 0,-0.398 c 7.512,0 15.024,-2.867 20.754,-8.598 3.754,-3.754 5.543,-6.394 9.406,-13.059 L 673.391,44.433 c 0.019,-0.035 0.035,-0.066 0.054,-0.097 2.465,-4.297 3.879,-9.274 3.879,-14.578 0,-16.215 -13.14,-29.356 -29.355,-29.356 H 29.902 C 27.348,0.39 24.75,0.707 22.164,1.402 6.504,5.597 -2.789,21.695 1.406,37.351 c 0.766,2.867 1.938,5.516 3.426,7.91 0.055,0.098 0.098,0.196 0.152,0.293 l 293.102,508.039 h 0.07 l 15.246,26.157 c 1.262,2.199 2.828,4.273 4.707,6.152 5.731,5.731 13.243,8.598 20.758,8.598 z" /><path
     id="path5506"
     style="fill:#000000;fill-opacity:1;fill-rule:nonzero;stroke:none"
     d="m 338.867,408.414 c -17.676,0 -32.004,-14.328 -32.004,-32 l 16,-188.016 c 0,-8.836 6.371,-16.015 16.004,-16 9.629,0.016 15.996,7.82 15.996,16.012 l 16,188.004 c 0,17.672 -14.324,32 -31.996,32 z" /><path
     id="path5508"
     style="fill:#000000;fill-opacity:1;fill-rule:nonzero;stroke:none"
     d="m 370.863,124.398 c 0,-17.683 -14.316,-31.996 -31.996,-31.996 -17.676,0 -32.004,14.309 -32.004,31.996 0,17.672 14.328,32.004 32.004,32.004 17.68,0 31.996,-14.332 31.996,-32.004" /></g></svg>
