<?xml version="1.0" encoding="UTF-8" standalone="no"?>
<!-- Generator: Adobe Illustrator 19.0.0, SVG Export Plug-In . SVG Version: 6.00 Build 0)  -->

<svg
   version="1.1"
   id="Layer_1"
   x="0px"
   y="0px"
   viewBox="0 0 512 512"
   style="enable-background:new 0 0 512 512;"
   xml:space="preserve"
   sodipodi:docname="marker_ambulance.svg"
   inkscape:version="1.1.1 (3bf5ae0d25, 2021-09-20)"
   inkscape:export-filename="C:\Users\PC\Desktop\marker_parking.png"
   inkscape:export-xdpi="96"
   inkscape:export-ydpi="96"
   xmlns:inkscape="http://www.inkscape.org/namespaces/inkscape"
   xmlns:sodipodi="http://sodipodi.sourceforge.net/DTD/sodipodi-0.dtd"
   xmlns="http://www.w3.org/2000/svg"
   xmlns:svg="http://www.w3.org/2000/svg"><defs
   id="defs45" /><sodipodi:namedview
   id="namedview43"
   pagecolor="#ffffff"
   bordercolor="#666666"
   borderopacity="1.0"
   inkscape:pageshadow="2"
   inkscape:pageopacity="0.0"
   inkscape:pagecheckerboard="0"
   showgrid="false"
   inkscape:zoom="1.4042969"
   inkscape:cx="263.121"
   inkscape:cy="266.6815"
   inkscape:window-width="1920"
   inkscape:window-height="1129"
   inkscape:window-x="-8"
   inkscape:window-y="-8"
   inkscape:window-maximized="1"
   inkscape:current-layer="Layer_1" />
<path
   style="fill:#00214d;fill-opacity:1;stroke-width:0.969335"
   d="m 437.7928,189.92679 c 0,104.06598 -178.5355,321.43621 -178.5355,321.43621 0,0 -178.535496,-217.37023 -178.535496,-321.43621 0,-104.065952 79.933696,-188.4274852 178.535496,-188.4274852 98.60181,0 178.5355,84.3625282 178.5355,188.4274852 z"
   id="path2-4" /><path
   style="fill:#ffd200;fill-opacity:1;stroke-width:0.884341"
   d="m 420.72629,191.10553 c 0,95.77126 -161.46898,295.81569 -161.46898,295.81569 0,0 -161.468995,-200.04443 -161.468995,-295.81569 0,-95.771241 72.292695,-173.408618 161.468995,-173.408618 89.17629,0 161.46898,77.638293 161.46898,173.408618 z"
   id="path2" />




<g
   id="g12"
   transform="matrix(0.92411015,0,0,0.96128171,28.219781,-3.2388105)"
   style="fill:#00214d;fill-opacity:1">
</g>
<g
   id="g14"
   transform="matrix(0.92411015,0,0,0.96128171,28.219781,-3.2388105)"
   style="fill:#00214d;fill-opacity:1">
</g>
<g
   id="g16"
   transform="matrix(0.92411015,0,0,0.96128171,28.219781,-3.2388105)"
   style="fill:#00214d;fill-opacity:1">
</g>
<g
   id="g18"
   transform="matrix(0.92411015,0,0,0.96128171,28.219781,-3.2388105)"
   style="fill:#00214d;fill-opacity:1">
</g>
<g
   id="g20"
   transform="matrix(0.92411015,0,0,0.96128171,28.219781,-3.2388105)"
   style="fill:#00214d;fill-opacity:1">
</g>
<g
   id="g22"
   transform="matrix(0.92411015,0,0,0.96128171,28.219781,-3.2388105)"
   style="fill:#00214d;fill-opacity:1">
</g>
<g
   id="g24"
   transform="matrix(0.92411015,0,0,0.96128171,28.219781,-3.2388105)"
   style="fill:#00214d;fill-opacity:1">
</g>
<g
   id="g26"
   transform="matrix(0.92411015,0,0,0.96128171,28.219781,-3.2388105)"
   style="fill:#00214d;fill-opacity:1">
</g>
<g
   id="g28"
   transform="matrix(0.92411015,0,0,0.96128171,28.219781,-3.2388105)"
   style="fill:#00214d;fill-opacity:1">
</g>
<g
   id="g30"
   transform="matrix(0.92411015,0,0,0.96128171,28.219781,-3.2388105)"
   style="fill:#00214d;fill-opacity:1">
</g>
<g
   id="g32"
   transform="matrix(0.92411015,0,0,0.96128171,28.219781,-3.2388105)"
   style="fill:#00214d;fill-opacity:1">
</g>
<g
   id="g34"
   transform="matrix(0.92411015,0,0,0.96128171,28.219781,-3.2388105)"
   style="fill:#00214d;fill-opacity:1">
</g>
<g
   id="g36"
   transform="matrix(0.92411015,0,0,0.96128171,28.219781,-3.2388105)"
   style="fill:#00214d;fill-opacity:1">
</g>
<g
   id="g38"
   transform="matrix(0.92411015,0,0,0.96128171,28.219781,-3.2388105)"
   style="fill:#00214d;fill-opacity:1">
</g>
<g
   id="g40"
   transform="matrix(0.92411015,0,0,0.96128171,28.219781,-3.2388105)"
   style="fill:#00214d;fill-opacity:1">
</g>
<style
   type="text/css"
   id="style42">
	.st0{fill:#FFD200;}
</style><g
   id="g1121"
   transform="matrix(0.69795243,0,0,0.69795243,196.01165,9.9798267)"
   style="stroke-width:14.3526;stroke-miterlimit:10;stroke-dasharray:none"><path
     class="st0"
     d="m 197.42743,333.70674 c 39.66239,8.36377 65.10756,21.27627 65.10756,35.72945 0,25.16469 -76.9917,45.56057 -171.918992,45.56057 -94.9272876,0 -171.919006,-20.32251 -171.919006,-45.56057 0,-14.08635 24.059912,-26.63201 61.826684,-34.99579"
     id="path4"
     style="fill:none;stroke:#00214d;stroke-width:14.3526;stroke-miterlimit:10;stroke-dasharray:none;stroke-opacity:1" /><g
     id="g8"
     transform="matrix(0.72762824,0,0,0.80931782,-96.748198,49.092399)"
     style="fill:none;fill-opacity:1;stroke:#00214d;stroke-width:18.7032;stroke-miterlimit:10;stroke-dasharray:none;stroke-opacity:1"><path
       class="st1"
       d="M 300.2,390.5 V 261.1 H 214.9 V 390.5 H 134.6 V 63.8 h 80.3 v 125.7 h 85.3 V 63.8 h 80.3 v 326.7 z"
       id="path6"
       style="fill:none;fill-opacity:1;stroke:#00214d;stroke-width:18.7032;stroke-miterlimit:10;stroke-dasharray:none;stroke-opacity:1" /></g></g></svg>
