<?xml version="1.0" encoding="UTF-8" standalone="no"?>
<!-- Generator: Adobe Illustrator 19.0.0, SVG Export Plug-In . SVG Version: 6.00 Build 0)  -->

<svg
   version="1.1"
   id="Layer_1"
   x="0px"
   y="0px"
   viewBox="0 0 512 512"
   style="enable-background:new 0 0 512 512;"
   xml:space="preserve"
   sodipodi:docname="marker_parking.svg"
   inkscape:version="1.1.1 (3bf5ae0d25, 2021-09-20)"
   inkscape:export-filename="C:\Users\PC\Desktop\marker_parking.png"
   inkscape:export-xdpi="96"
   inkscape:export-ydpi="96"
   xmlns:inkscape="http://www.inkscape.org/namespaces/inkscape"
   xmlns:sodipodi="http://sodipodi.sourceforge.net/DTD/sodipodi-0.dtd"
   xmlns="http://www.w3.org/2000/svg"
   xmlns:svg="http://www.w3.org/2000/svg"><defs
   id="defs45" /><sodipodi:namedview
   id="namedview43"
   pagecolor="#ffffff"
   bordercolor="#666666"
   borderopacity="1.0"
   inkscape:pageshadow="2"
   inkscape:pageopacity="0.0"
   inkscape:pagecheckerboard="0"
   showgrid="false"
   inkscape:zoom="1.4042969"
   inkscape:cx="263.8331"
   inkscape:cy="209.71349"
   inkscape:window-width="1920"
   inkscape:window-height="1129"
   inkscape:window-x="-8"
   inkscape:window-y="-8"
   inkscape:window-maximized="1"
   inkscape:current-layer="Layer_1" />
<path
   style="fill:#00214d;fill-opacity:1;stroke-width:0.969335"
   d="m 437.7928,189.92679 c 0,104.06598 -178.5355,321.43621 -178.5355,321.43621 0,0 -178.535496,-217.37023 -178.535496,-321.43621 0,-104.065952 79.933696,-188.4274852 178.535496,-188.4274852 98.60181,0 178.5355,84.3625282 178.5355,188.4274852 z"
   id="path2-4" /><path
   style="fill:#ffd200;fill-opacity:1;stroke-width:0.884341"
   d="m 420.72629,191.10553 c 0,95.77126 -161.46898,295.81569 -161.46898,295.81569 0,0 -161.468995,-200.04443 -161.468995,-295.81569 0,-95.771241 72.292695,-173.408618 161.468995,-173.408618 89.17629,0 161.46898,77.638293 161.46898,173.408618 z"
   id="path2" />




<g
   id="g12"
   transform="matrix(0.92411015,0,0,0.96128171,28.219781,-3.2388105)"
   style="fill:#00214d;fill-opacity:1">
</g>
<g
   id="g14"
   transform="matrix(0.92411015,0,0,0.96128171,28.219781,-3.2388105)"
   style="fill:#00214d;fill-opacity:1">
</g>
<g
   id="g16"
   transform="matrix(0.92411015,0,0,0.96128171,28.219781,-3.2388105)"
   style="fill:#00214d;fill-opacity:1">
</g>
<g
   id="g18"
   transform="matrix(0.92411015,0,0,0.96128171,28.219781,-3.2388105)"
   style="fill:#00214d;fill-opacity:1">
</g>
<g
   id="g20"
   transform="matrix(0.92411015,0,0,0.96128171,28.219781,-3.2388105)"
   style="fill:#00214d;fill-opacity:1">
</g>
<g
   id="g22"
   transform="matrix(0.92411015,0,0,0.96128171,28.219781,-3.2388105)"
   style="fill:#00214d;fill-opacity:1">
</g>
<g
   id="g24"
   transform="matrix(0.92411015,0,0,0.96128171,28.219781,-3.2388105)"
   style="fill:#00214d;fill-opacity:1">
</g>
<g
   id="g26"
   transform="matrix(0.92411015,0,0,0.96128171,28.219781,-3.2388105)"
   style="fill:#00214d;fill-opacity:1">
</g>
<g
   id="g28"
   transform="matrix(0.92411015,0,0,0.96128171,28.219781,-3.2388105)"
   style="fill:#00214d;fill-opacity:1">
</g>
<g
   id="g30"
   transform="matrix(0.92411015,0,0,0.96128171,28.219781,-3.2388105)"
   style="fill:#00214d;fill-opacity:1">
</g>
<g
   id="g32"
   transform="matrix(0.92411015,0,0,0.96128171,28.219781,-3.2388105)"
   style="fill:#00214d;fill-opacity:1">
</g>
<g
   id="g34"
   transform="matrix(0.92411015,0,0,0.96128171,28.219781,-3.2388105)"
   style="fill:#00214d;fill-opacity:1">
</g>
<g
   id="g36"
   transform="matrix(0.92411015,0,0,0.96128171,28.219781,-3.2388105)"
   style="fill:#00214d;fill-opacity:1">
</g>
<g
   id="g38"
   transform="matrix(0.92411015,0,0,0.96128171,28.219781,-3.2388105)"
   style="fill:#00214d;fill-opacity:1">
</g>
<g
   id="g40"
   transform="matrix(0.92411015,0,0,0.96128171,28.219781,-3.2388105)"
   style="fill:#00214d;fill-opacity:1">
</g>
<style
   type="text/css"
   id="style42">
	.st0{fill:#FFD200;}
</style><g
   id="g893"
   transform="matrix(0.24414063,0,0,0.24414063,134.2573,63.243859)"
   style="fill:none;stroke-width:40.96;stroke-miterlimit:4;stroke-dasharray:none"><path
     class="st0"
     d="m 646.18935,701.51303 c 212.52749,15.47936 368.78545,66.72861 368.78545,127.80935 0,73.21321 -225.07837,132.62051 -502.87022,132.62051 -277.79185,0 -503.0793655,-59.61648 -503.0793655,-132.82969 0,-56.68794 135.5490355,-105.21785 326.1125755,-124.0441"
     id="path4"
     style="fill:none;stroke:#00214d;stroke-width:40.96;stroke-miterlimit:4;stroke-dasharray:none;stroke-opacity:1" /><g
     id="g8"
     transform="matrix(2.32011,0,0,2.32011,-85.937998,-96.07753)"
     style="fill:none;stroke:#00214d;stroke-width:17.6543;stroke-miterlimit:4;stroke-dasharray:none;stroke-opacity:1"><path
       class="st1"
       d="M 342.3,276.4 H 291.8 V 396.2 H 209.3 V 60.4 h 133 c 74.5,0 114.6,52.8 114.6,108 0,55.2 -40.1,108 -114.6,108 z m -3.8,-142 h -46.7 v 67.9 h 46.7 c 22.6,0 35.8,-16.5 35.8,-34 0,-17.4 -13.2,-33.9 -35.8,-33.9 z"
       id="path6"
       style="fill:none;stroke:#00214d;stroke-width:17.6543;stroke-miterlimit:4;stroke-dasharray:none;stroke-opacity:1" /></g></g></svg>
