<?xml version="1.0" encoding="UTF-8" standalone="no"?>
<!-- Generator: Adobe Illustrator 23.1.0, SVG Export Plug-In . SVG Version: 6.00 Build 0)  -->

<svg
   version="1.1"
   id="Layer_1"
   x="0px"
   y="0px"
   viewBox="0 0 1024 1024"
   xml:space="preserve"
   sodipodi:docname="police.svg"
   width="1024"
   height="1024"
   inkscape:version="1.1.1 (3bf5ae0d25, 2021-09-20)"
   xmlns:inkscape="http://www.inkscape.org/namespaces/inkscape"
   xmlns:sodipodi="http://sodipodi.sourceforge.net/DTD/sodipodi-0.dtd"
   xmlns="http://www.w3.org/2000/svg"
   xmlns:svg="http://www.w3.org/2000/svg"><defs
   id="defs45">
	
	
	
	
	
	
	
	
		
	
	
	
	
	
	
	
</defs><sodipodi:namedview
   id="namedview43"
   pagecolor="#ffffff"
   bordercolor="#666666"
   borderopacity="1.0"
   inkscape:pageshadow="2"
   inkscape:pageopacity="0.0"
   inkscape:pagecheckerboard="0"
   showgrid="false"
   inkscape:zoom="0.70214844"
   inkscape:cx="544.7566"
   inkscape:cy="499.1822"
   inkscape:window-width="1920"
   inkscape:window-height="1129"
   inkscape:window-x="-8"
   inkscape:window-y="-8"
   inkscape:window-maximized="1"
   inkscape:current-layer="Layer_1" />
<style
   type="text/css"
   id="style2">
	.st0{fill:none;stroke:#FFD200;stroke-width:10;stroke-linecap:round;stroke-linejoin:bevel;stroke-miterlimit:10;}
	.st1{fill:none;stroke:#FFD200;stroke-width:10;stroke-linecap:round;stroke-linejoin:round;stroke-miterlimit:10;}
</style>
<g
   id="g936"
   style="stroke-width:18;stroke-miterlimit:10;stroke-dasharray:none;stroke:#00214d;stroke-opacity:1"
   transform="matrix(1.0039343,0,0,1.0039343,-2.0143501,-2.0143629)"><path
     class="st0"
     d="m 863.38983,716.50044 c 92.37134,25.09478 149.60367,59.87527 149.60367,98.39796 0,76.385 -224.30031,138.02131 -500.99349,138.02131 -276.6932,0 -500.993533,-61.63631 -500.993533,-138.02131 0,-38.08243 56.18029,-72.64279 146.657913,-97.73757"
     id="path4"
     style="stroke-width:18;stroke-miterlimit:10;stroke-dasharray:none;stroke:#00214d;stroke-opacity:1" /><polyline
     class="st1"
     points="216.9,204.1 216.9,242 127.1,257.4 116.2,292.4 163.2,399.7  "
     id="polyline6"
     style="stroke-width:8.177;stroke-miterlimit:10;stroke-dasharray:none;stroke:#00214d;stroke-opacity:1"
     transform="matrix(2.2012967,0,0,2.2012967,-53.711646,-73.104686)" /><polyline
     class="st1"
     points="298.2,202.5 298.2,242 388,257.4 398.9,292.4 351.9,399.7  "
     id="polyline8"
     style="stroke-width:8.177;stroke-miterlimit:10;stroke-dasharray:none;stroke:#00214d;stroke-opacity:1"
     transform="matrix(2.2012967,0,0,2.2012967,-53.711646,-73.104686)" /><g
     id="g12"
     style="stroke-width:8.177;stroke-miterlimit:10;stroke-dasharray:none;stroke:#00214d;stroke-opacity:1"
     transform="matrix(2.2012967,0,0,2.2012967,-53.711646,-73.104686)">
		<path
   class="st1"
   d="m 316.3,113.5 c -16.9,18.5 -38,33.2 -58.9,33.2 -20.9,0 -41.9,-14.7 -58.8,-33.2 0,0 -5.6,114.3 58.9,114.3 61,0 58.8,-108.9 58.8,-108.9 z"
   id="path10"
   style="stroke-width:8.177;stroke-miterlimit:10;stroke-dasharray:none;stroke:#00214d;stroke-opacity:1" />
	</g><polygon
     class="st1"
     points="344.9,93.8 319.1,113.5 199.2,113.5 170.8,93.8 256.5,65.5 "
     id="polygon14"
     style="stroke-width:8.177;stroke-miterlimit:10;stroke-dasharray:none;stroke:#00214d;stroke-opacity:1"
     transform="matrix(2.2012967,0,0,2.2012967,-53.711646,-73.104686)" /><g
     id="g18"
     style="stroke-width:8.177;stroke-miterlimit:10;stroke-dasharray:none;stroke:#00214d;stroke-opacity:1"
     transform="matrix(2.2012967,0,0,2.2012967,-53.711646,-73.104686)">
		<line
   class="st1"
   x1="149"
   y1="276.29999"
   x2="198.60001"
   y2="269.39999"
   id="line16"
   style="stroke-width:8.177;stroke-miterlimit:10;stroke-dasharray:none;stroke:#00214d;stroke-opacity:1" />
	</g><g
     id="g22"
     style="stroke-width:8.177;stroke-miterlimit:10;stroke-dasharray:none;stroke:#00214d;stroke-opacity:1"
     transform="matrix(2.2012967,0,0,2.2012967,-53.711646,-73.104686)">
		<line
   class="st1"
   x1="366"
   y1="276.29999"
   x2="316.29999"
   y2="269.39999"
   id="line20"
   style="stroke-width:8.177;stroke-miterlimit:10;stroke-dasharray:none;stroke:#00214d;stroke-opacity:1" />
	</g><circle
     transform="rotate(-80.781636)"
     class="st1"
     cx="-40.175117"
     cy="525.92279"
     id="ellipse24"
     r="20.47237"
     style="stroke-width:18;stroke-miterlimit:10;stroke-dasharray:none;stroke:#00214d;stroke-opacity:1" /><line
     class="st1"
     x1="478.34177"
     y1="362.80856"
     x2="547.46252"
     y2="362.80856"
     id="line26"
     style="stroke-width:18;stroke-miterlimit:10;stroke-dasharray:none;stroke:#00214d;stroke-opacity:1" /><line
     class="st1"
     x1="456.76904"
     y1="275.71255"
     x2="458.97034"
     y2="275.71255"
     id="line28"
     style="stroke-width:18;stroke-miterlimit:10;stroke-dasharray:none;stroke:#00214d;stroke-opacity:1" /><line
     class="st1"
     x1="565.95337"
     y1="275.71255"
     x2="568.15466"
     y2="275.71255"
     id="line30"
     style="stroke-width:18;stroke-miterlimit:10;stroke-dasharray:none;stroke:#00214d;stroke-opacity:1" /><line
     class="st1"
     x1="514.88324"
     y1="629.10895"
     x2="517.30469"
     y2="629.10895"
     id="line32"
     style="stroke-width:18;stroke-miterlimit:10;stroke-dasharray:none;stroke:#00214d;stroke-opacity:1" /><line
     class="st1"
     x1="514.88324"
     y1="699.11017"
     x2="517.30469"
     y2="699.11017"
     id="line34"
     style="stroke-width:18;stroke-miterlimit:10;stroke-dasharray:none;stroke:#00214d;stroke-opacity:1" /><line
     class="st1"
     x1="514.88324"
     y1="768.8913"
     x2="517.30469"
     y2="768.8913"
     id="line36"
     style="stroke-width:18;stroke-miterlimit:10;stroke-dasharray:none;stroke:#00214d;stroke-opacity:1" /><polyline
     class="st1"
     points="216.9,242 259.4,291.4 301,242  "
     id="polyline38"
     style="stroke-width:8.177;stroke-miterlimit:10;stroke-dasharray:none;stroke:#00214d;stroke-opacity:1"
     transform="matrix(2.2012967,0,0,2.2012967,-53.711646,-73.104686)" /></g>
</svg>
