<?xml version="1.0" encoding="UTF-8" standalone="no"?>
<!-- Generator: Adobe Illustrator 23.1.0, SVG Export Plug-In . SVG Version: 6.00 Build 0)  -->

<svg
   version="1.1"
   id="Layer_1"
   x="0px"
   y="0px"
   viewBox="0 0 1024 1024"
   xml:space="preserve"
   sodipodi:docname="closest_pumps.svg"
   width="1024"
   height="1024"
   inkscape:version="1.1.1 (3bf5ae0d25, 2021-09-20)"
   xmlns:inkscape="http://www.inkscape.org/namespaces/inkscape"
   xmlns:sodipodi="http://sodipodi.sourceforge.net/DTD/sodipodi-0.dtd"
   xmlns="http://www.w3.org/2000/svg"
   xmlns:svg="http://www.w3.org/2000/svg"><defs
   id="defs35">
	
	
	
	
	
	
	
</defs><sodipodi:namedview
   id="namedview33"
   pagecolor="#ffffff"
   bordercolor="#666666"
   borderopacity="1.0"
   inkscape:pageshadow="2"
   inkscape:pageopacity="0.0"
   inkscape:pagecheckerboard="0"
   showgrid="false"
   inkscape:zoom="0.35107422"
   inkscape:cx="451.47149"
   inkscape:cy="428.68428"
   inkscape:window-width="1280"
   inkscape:window-height="953"
   inkscape:window-x="-8"
   inkscape:window-y="-8"
   inkscape:window-maximized="1"
   inkscape:current-layer="Layer_1" />
<style
   type="text/css"
   id="style2">
	.st0{fill:none;stroke:#FFD200;stroke-width:10;stroke-linecap:round;stroke-miterlimit:10;}
	.st1{fill:none;stroke:#FFD200;stroke-width:10;stroke-linecap:round;stroke-miterlimit:10;stroke-dasharray:21.3535,21.3535;}
	.st2{fill:none;stroke:#FFD200;stroke-width:10;stroke-linecap:round;stroke-linejoin:bevel;stroke-miterlimit:10;}
	.st3{fill:none;stroke:#FFD200;stroke-width:10;stroke-miterlimit:10;}
	.st4{fill:none;stroke:#FFD200;stroke-width:10;stroke-linecap:round;stroke-linejoin:round;stroke-miterlimit:10;}
</style>
<g
   id="g892"
   transform="matrix(1.023226,0,0,1.023226,0.11313817,-10.959369)"><line
     class="st0"
     x1="268.74274"
     y1="34.181919"
     x2="6.5196815"
     y2="986.09045"
     id="line14"
     style="stroke-width:13.2605;stroke-miterlimit:4;stroke-dasharray:none" /><line
     class="st0"
     x1="397.46289"
     y1="42.970581"
     x2="397.57321"
     y2="986.01819"
     id="line14-9"
     style="fill:none;stroke:#ffd200;stroke-width:13.2605;stroke-linecap:round;stroke-miterlimit:4;stroke-dasharray:106.084, 106.084;stroke-dashoffset:0" /><line
     class="st0"
     x1="516.90063"
     y1="33.911011"
     x2="581.90582"
     y2="231.67865"
     id="line16"
     style="stroke-width:13;stroke-miterlimit:4;stroke-dasharray:none" /><g
     id="g880"
     transform="matrix(0.95370365,0,0,0.95370365,23.94789,46.05406)"><g
       id="g20"
       transform="matrix(2.3630441,0,0,2.5728102,-137.31538,-49.251406)"
       style="stroke-width:5.37797;stroke-miterlimit:4;stroke-dasharray:none">
		<path
   class="st2"
   d="M 419.3,97.6 H 307.8 c -15.5,0 -28.1,12.6 -28.1,28.1 V 237 c 0,2.7 1,5.3 2.7,7.3 l 12.5,14.4 3.2,144.4 H 429 l 3.2,-144.4 12.4,-14.4 c 1.8,-2 2.7,-4.6 2.7,-7.3 V 125.7 c 0.1,-15.6 -12.5,-28.1 -28,-28.1 z"
   id="path18"
   style="stroke-width:5.37797;stroke-miterlimit:4;stroke-dasharray:none" />
	</g><g
       id="g24"
       transform="matrix(2.3630441,0,0,2.5728102,-137.31538,-49.251406)"
       style="stroke-width:5.37797;stroke-miterlimit:4;stroke-dasharray:none">
		<path
   class="st3"
   d="m 405.8,125.1 h -84.5 c -7.8,0 -14.2,6.3 -14.2,14.2 v 77.5 c 0,7.4 6,13.5 13.5,13.5 h 86 c 7.4,0 13.5,-6 13.5,-13.5 v -77.5 c -0.1,-7.8 -6.5,-14.2 -14.3,-14.2 z"
   id="path22"
   style="stroke-width:5.37797;stroke-miterlimit:4;stroke-dasharray:none" />
	</g><path
       class="st2"
       d="m 883.41781,637.68889 c -12.84201,357.62066 240.30069,169.03362 81.33253,-64.8348 -58.17807,-85.67457 -21.40332,-164.65986 8.17216,-204.02384 23.34908,-31.13102 28.0189,-32.1601 44.5578,-50.16978"
       id="path26"
       style="stroke-width:13.2605;stroke-miterlimit:4;stroke-dasharray:none" /><polyline
       class="st4"
       points="463.1,193.8 474.4,196 487.9,177.3 479.5,160.9  "
       id="polyline28"
       transform="matrix(1.8799617,0,0,2.167859,79.356672,17.699375)"
       style="stroke-width:6.56853;stroke-miterlimit:4;stroke-dasharray:none" /></g></g>
</svg>
