<?xml version="1.0" encoding="UTF-8" standalone="no"?>
<!-- Generator: Adobe Illustrator 19.0.0, SVG Export Plug-In . SVG Version: 6.00 Build 0)  -->

<svg
   version="1.1"
   id="Layer_1"
   x="0px"
   y="0px"
   viewBox="0 0 512 512"
   style="enable-background:new 0 0 512 512;"
   xml:space="preserve"
   sodipodi:docname="marker_roadwork.svg"
   inkscape:version="1.1.1 (3bf5ae0d25, 2021-09-20)"
   inkscape:export-filename="C:\Users\PC\Desktop\marker_parking.png"
   inkscape:export-xdpi="96"
   inkscape:export-ydpi="96"
   xmlns:inkscape="http://www.inkscape.org/namespaces/inkscape"
   xmlns:sodipodi="http://sodipodi.sourceforge.net/DTD/sodipodi-0.dtd"
   xmlns="http://www.w3.org/2000/svg"
   xmlns:svg="http://www.w3.org/2000/svg"><defs
   id="defs45"><clipPath
     clipPathUnits="userSpaceOnUse"
     id="clipEmfPath1"><path
       d="m 0,48.2246 54.8246,0 L 54.8246,0 0,0 0,48.2246 Z"
       id="path3344" /></clipPath><pattern
     id="EMFhbasepattern"
     patternUnits="userSpaceOnUse"
     width="6"
     height="6"
     x="0"
     y="0" /></defs><sodipodi:namedview
   id="namedview43"
   pagecolor="#ffffff"
   bordercolor="#666666"
   borderopacity="1.0"
   inkscape:pageshadow="2"
   inkscape:pageopacity="0.0"
   inkscape:pagecheckerboard="0"
   showgrid="false"
   inkscape:zoom="1.4042969"
   inkscape:cx="180.51738"
   inkscape:cy="164.13908"
   inkscape:window-width="1920"
   inkscape:window-height="1129"
   inkscape:window-x="-8"
   inkscape:window-y="-8"
   inkscape:window-maximized="1"
   inkscape:current-layer="Layer_1" />
<path
   style="fill:#00214d;fill-opacity:1;stroke-width:0.969335"
   d="m 437.7928,189.92679 c 0,104.06598 -178.5355,321.43621 -178.5355,321.43621 0,0 -178.535496,-217.37023 -178.535496,-321.43621 0,-104.065952 79.933696,-188.4274852 178.535496,-188.4274852 98.60181,0 178.5355,84.3625282 178.5355,188.4274852 z"
   id="path2-4" /><path
   style="fill:#ffd200;fill-opacity:1;stroke-width:0.930657"
   d="m 430.64024,189.92679 c 0,99.89778 -171.43838,308.56159 -171.43838,308.56159 0,0 -171.438393,-208.66381 -171.438393,-308.56159 0,-99.897767 76.756183,-180.880331 171.438393,-180.880331 94.68221,0 171.43838,80.98352 171.43838,180.880331 z"
   id="path2" />




<g
   id="g12"
   transform="matrix(0.92411015,0,0,0.96128171,28.219781,-3.2388105)">
</g>
<g
   id="g14"
   transform="matrix(0.92411015,0,0,0.96128171,28.219781,-3.2388105)">
</g>
<g
   id="g16"
   transform="matrix(0.92411015,0,0,0.96128171,28.219781,-3.2388105)">
</g>
<g
   id="g18"
   transform="matrix(0.92411015,0,0,0.96128171,28.219781,-3.2388105)">
</g>
<g
   id="g20"
   transform="matrix(0.92411015,0,0,0.96128171,28.219781,-3.2388105)">
</g>
<g
   id="g22"
   transform="matrix(0.92411015,0,0,0.96128171,28.219781,-3.2388105)">
</g>
<g
   id="g24"
   transform="matrix(0.92411015,0,0,0.96128171,28.219781,-3.2388105)">
</g>
<g
   id="g26"
   transform="matrix(0.92411015,0,0,0.96128171,28.219781,-3.2388105)">
</g>
<g
   id="g28"
   transform="matrix(0.92411015,0,0,0.96128171,28.219781,-3.2388105)">
</g>
<g
   id="g30"
   transform="matrix(0.92411015,0,0,0.96128171,28.219781,-3.2388105)">
</g>
<g
   id="g32"
   transform="matrix(0.92411015,0,0,0.96128171,28.219781,-3.2388105)">
</g>
<g
   id="g34"
   transform="matrix(0.92411015,0,0,0.96128171,28.219781,-3.2388105)">
</g>
<g
   id="g36"
   transform="matrix(0.92411015,0,0,0.96128171,28.219781,-3.2388105)">
</g>
<g
   id="g38"
   transform="matrix(0.92411015,0,0,0.96128171,28.219781,-3.2388105)">
</g>
<g
   id="g40"
   transform="matrix(0.92411015,0,0,0.96128171,28.219781,-3.2388105)">
</g>
<style
   type="text/css"
   id="style871">
	.st0{fill:#FFD200;}
</style><g
   id="g77"
   transform="matrix(0.31871249,0,0,0.33487903,123.7,26.199943)"><g
     id="g7291"
     transform="matrix(1.25,0,0,-1.25,0,743.62267)"><g
       id="g7293"><path
         d="m 338.859,594.5 c 7.512,0 15.028,-2.867 20.758,-8.598 1.879,-1.879 3.445,-3.953 4.707,-6.152 l 15.246,-26.157 h 0.071 L 672.742,45.554 c 0.055,-0.097 0.098,-0.195 0.153,-0.293 1.488,-2.394 2.656,-5.043 3.425,-7.91 4.196,-15.656 -5.097,-31.754 -20.758,-35.949 -2.585,-0.695 -5.183,-1.012 -7.738,-1 H 29.758 c -16.215,0 -29.356,13.141 -29.356,29.356 0,5.304 1.414,10.281 3.879,14.578 0.02,0.031 0.035,0.062 0.051,0.097 l 304.367,528.41 c 3.863,6.665 5.653,9.305 9.406,13.059 5.731,5.731 13.243,8.598 20.754,8.598 z"
         style="fill:#ffffff;fill-opacity:1;fill-rule:nonzero;stroke:none"
         id="path7295" /><path
         d="m 338.859,587.144 c 7.125,0.051 14.95,-3.59 18.782,-10.406 L 666.934,40.847 c 1.785,-3.648 2.535,-6.82 2.558,-10.449 0,-6.496 -2.875,-12.66 -7.847,-16.84 -4.383,-3.394 -8.536,-5.16 -14.122,-5.16 H 29.617 C 25.848,8.363 22.07,9.269 18.641,11.531 12.188,15.429 8.238,22.414 8.23,29.957 c 0.184,3.894 1.145,8 2.879,10.89 l 309.114,535.981 c 0.027,0.047 0.058,0.094 0.089,0.14 0.032,0.047 0.063,0.094 0.094,0.145 1.098,1.754 2.473,3.305 4.039,4.633 3.59,3.109 8.086,4.976 12.825,5.316 0.531,0.047 1.062,0.078 1.589,0.082 z M 647.523,8.398 h 1.524 -1.555 z M 339.18,480.933 103.477,72.398 h 471.738 z"
         style="fill:#c1121c;fill-opacity:1;fill-rule:nonzero;stroke:none"
         id="path7297" /><path
         d="m 338.859,594.898 c 7.618,0 15.231,-2.906 21.039,-8.715 1.907,-1.902 3.493,-4.008 4.774,-6.234 l 15.129,-25.957 h 0.07 L 673.086,45.754 c 0.066,-0.118 0.113,-0.219 0.16,-0.301 1.504,-2.422 2.684,-5.102 3.461,-7.996 C 680.957,21.586 671.535,5.269 655.668,1.015 653.047,0.312 650.41,-0.008 647.824,0 H 29.758 C 13.328,0 0,13.328 0,29.758 c 0,5.375 1.438,10.417 3.934,14.773 0.011,0.019 0.027,0.051 0.05,0.098 l 304.364,528.414 c 3.871,6.668 5.695,9.363 9.468,13.14 5.809,5.809 13.426,8.715 21.039,8.715 z m 0,-0.398 c -7.511,0 -15.023,-2.867 -20.754,-8.598 -3.753,-3.754 -5.543,-6.394 -9.406,-13.059 L 4.336,44.433 C 4.316,44.398 4.301,44.367 4.281,44.336 1.816,40.039 0.402,35.062 0.402,29.758 0.402,13.543 13.543,0.402 29.758,0.402 h 618.066 c 2.555,-0.012 5.153,0.305 7.738,1 15.661,4.195 24.954,20.293 20.758,35.949 -0.765,2.867 -1.937,5.516 -3.425,7.91 -0.055,0.098 -0.098,0.196 -0.153,0.293 L 379.641,553.593 h -0.071 l -15.246,26.157 c -1.262,2.199 -2.828,4.273 -4.707,6.152 -5.73,5.731 -13.242,8.598 -20.758,8.598 z"
         style="fill:#000000;fill-opacity:1;fill-rule:nonzero;stroke:none"
         id="path7299" /></g></g><g
     transform="matrix(54.637771,0,0,54.637771,13508.661,-8580.5364)"
     id="g3369"><path
       id="path3347"
       d=""
       clip-path="url(#clipEmfPath1)"
       style="fill:none;stroke:none"
       transform="translate(-247.20807,157.04404)" /><path
       id="path3355"
       d="m -239.39763,168.30462 0.762,-0.91017 c 0.0423,-0.0212 0.0847,-0.0635 0.127,-0.0635 l 0.14817,-0.0635 c 0.0847,-0.0212 0.16933,-0.0847 0.23283,-0.14816 l 0.52914,-0.61381 c 0.23283,-0.29633 0.65617,-0.3175 0.93133,-0.0847 0.0423,0.0212 0.0847,0.0635 0.10584,0.10584 l 1.37583,1.77797 c 0.0423,0.0635 0.0423,0.14817 -0.0212,0.1905 -0.0212,0.0212 -0.0635,0.0423 -0.0847,0.0423 h -4.00047 c -0.0847,0 -0.127,-0.0635 -0.127,-0.14817 0,-0.0212 0,-0.0635 0.0212,-0.0847 z m 1.016,-5.1223 c 0,0.27516 -0.23283,0.508 -0.508,0.508 -0.27516,0 -0.508,-0.23284 -0.508,-0.508 0,-0.27517 0.23284,-0.48681 0.508,-0.48681 0.27517,0 0.508,0.21164 0.508,0.48681 z m -2.75166,2.13783 0.74083,-1.397 h -0.52917 l -0.3175,0.59267 0.3175,0.27516 -0.10583,0.1905 -0.3175,-0.254 -0.14814,0.27517 c -0.23283,-0.127 -0.3175,-0.42333 -0.1905,-0.635 l 0.38097,-0.74083 c 0.0635,-0.10584 0.16934,-0.16934 0.29634,-0.16934 h 1.18533 c 0.29633,0 0.52917,0.23284 0.52917,0.52917 0,0.0212 0,0.0212 0,0.0423 l -0.127,1.98967 1.24883,1.0583 c -0.0423,0.0423 -0.10583,0.0847 -0.1905,0.127 l -1.0795,-0.91014 -0.0212,0.23284 c -0.254,-0.0212 -0.4445,-0.23284 -0.42333,-0.48684 v -0.10583 l -0.3175,-0.254 0.10583,-0.1905 0.23284,0.16933 0.0423,-0.8255 -0.48683,0.93134 -0.8255,-0.4445 z m 1.37583,3.2173 c -0.29633,0 -0.55033,-0.23283 -0.55033,-0.52916 l -0.0423,-1.12184 -0.55033,-0.84663 -1.33347,2.49763 c -0.254,-0.14816 -0.35984,-0.46566 -0.21167,-0.74083 l 1.24881,-2.34947 0.8255,0.42333 0.52916,0.82547 c 0,0.0212 0.0212,0.0423 0.0212,0.0635"
       style="fill:#000000;fill-opacity:1;fill-rule:nonzero;stroke:none" /></g></g></svg>
