<?xml version="1.0" encoding="UTF-8" standalone="no"?>
<!-- Generator: Adobe Illustrator 23.1.0, SVG Export Plug-In . SVG Version: 6.00 Build 0)  -->

<svg
   version="1.1"
   id="Layer_1"
   x="0px"
   y="0px"
   viewBox="0 0 1024 1024"
   xml:space="preserve"
   sodipodi:docname="borders_cameras.svg"
   inkscape:version="1.1.1 (3bf5ae0d25, 2021-09-20)"
   width="1024"
   height="1024"
   xmlns:inkscape="http://www.inkscape.org/namespaces/inkscape"
   xmlns:sodipodi="http://sodipodi.sourceforge.net/DTD/sodipodi-0.dtd"
   xmlns="http://www.w3.org/2000/svg"
   xmlns:svg="http://www.w3.org/2000/svg"><defs
   id="defs47">
	
	
	
	
</defs><sodipodi:namedview
   id="namedview45"
   pagecolor="#ffffff"
   bordercolor="#666666"
   borderopacity="1.0"
   inkscape:pageshadow="2"
   inkscape:pageopacity="0.0"
   inkscape:pagecheckerboard="0"
   showgrid="false"
   inkscape:zoom="0.35107422"
   inkscape:cx="505.5911"
   inkscape:cy="414.44228"
   inkscape:window-width="1280"
   inkscape:window-height="953"
   inkscape:window-x="-8"
   inkscape:window-y="-8"
   inkscape:window-maximized="1"
   inkscape:current-layer="Layer_1" />
<style
   type="text/css"
   id="style2">
	.st0{fill:none;stroke:#FFD200;stroke-width:10;stroke-linecap:round;stroke-linejoin:round;stroke-miterlimit:10;}
	.st1{fill:none;stroke:#FFD200;stroke-width:10;stroke-miterlimit:10;}
</style>
<g
   id="g899"
   transform="matrix(1.0010636,0,0,1.0010636,-0.54457124,-0.5443913)"><g
     id="g12"
     transform="matrix(2.0489039,0,0,2.0466091,-11.597384,-68.140285)"
     style="stroke-width:6.34841;stroke-miterlimit:10;stroke-dasharray:none">
		<polyline
   class="st0"
   points="274.8,152.8 274.8,229.6 437.2,188.3   "
   id="polyline4"
   style="stroke-width:6.34841;stroke-miterlimit:10;stroke-dasharray:none" />
		<g
   id="g8"
   style="stroke-width:6.34841;stroke-miterlimit:10;stroke-dasharray:none">
			<path
   class="st1"
   d="M 389,39.4 H 145.4 c -13.2,0 -23.8,10.7 -23.8,23.8 l 40.8,66.5 c 10.9,19.9 28.6,23.8 41.7,23.8 l 185,-3.6 c 13.2,0 23.8,-10.7 23.8,-23.8 V 63.3 C 412.9,50.1 402.2,39.4 389,39.4 Z"
   id="path6"
   style="stroke-width:6.34841;stroke-miterlimit:10;stroke-dasharray:none" />
		</g>
		<polygon
   class="st0"
   points="121.3,147.7 149.8,141.4 116.4,88 80,93.6 "
   id="polygon10"
   style="stroke-width:6.34841;stroke-miterlimit:10;stroke-dasharray:none" />
	</g><path
     class="st0"
     d="m 342.23381,1011.4999 h -209.1641 l 15.68222,-333.78743 c 0,-55.90186 39.91837,-101.36561 89.00167,-101.36561 v 0 c 49.08332,0 89.00167,45.46375 89.00167,101.36561 z"
     id="path14"
     style="stroke-width:13;stroke-miterlimit:10;stroke-dasharray:none" /><g
     id="g38"
     transform="matrix(2.0489039,0,0,2.0466091,-11.597384,1.7173986)"
     style="stroke-width:6.34841;stroke-miterlimit:10;stroke-dasharray:none">
		<line
   class="st0"
   x1="9.1000004"
   y1="351.79999"
   x2="15.6"
   y2="381.70001"
   id="line16"
   style="stroke-width:6.34841;stroke-miterlimit:10;stroke-dasharray:none" />
		<line
   class="st0"
   x1="46.599998"
   y1="343.70001"
   x2="53"
   y2="373.5"
   id="line18"
   style="stroke-width:6.34841;stroke-miterlimit:10;stroke-dasharray:none" />
		<line
   class="st0"
   x1="196.2"
   y1="311.10001"
   x2="202.7"
   y2="341"
   id="line20"
   style="stroke-width:6.34841;stroke-miterlimit:10;stroke-dasharray:none" />
		<line
   class="st0"
   x1="271"
   y1="294.89999"
   x2="277.5"
   y2="324.70001"
   id="line22"
   style="stroke-width:6.34841;stroke-miterlimit:10;stroke-dasharray:none" />
		<line
   class="st0"
   x1="345.79999"
   y1="278.60001"
   x2="352.29999"
   y2="308.39999"
   id="line24"
   style="stroke-width:6.34841;stroke-miterlimit:10;stroke-dasharray:none" />
		<line
   class="st0"
   x1="420.70001"
   y1="262.29999"
   x2="427.20001"
   y2="292.20001"
   id="line26"
   style="stroke-width:6.34841;stroke-miterlimit:10;stroke-dasharray:none" />
		<line
   class="st0"
   x1="495.5"
   y1="246.10001"
   x2="502"
   y2="275.89999"
   id="line28"
   style="stroke-width:6.34841;stroke-miterlimit:10;stroke-dasharray:none" />
		<line
   class="st0"
   x1="233.60001"
   y1="303"
   x2="240.10001"
   y2="332.79999"
   id="line30"
   style="stroke-width:6.34841;stroke-miterlimit:10;stroke-dasharray:none" />
		<line
   class="st0"
   x1="308.39999"
   y1="286.70001"
   x2="314.89999"
   y2="316.60001"
   id="line32"
   style="stroke-width:6.34841;stroke-miterlimit:10;stroke-dasharray:none" />
		<line
   class="st0"
   x1="383.29999"
   y1="270.5"
   x2="389.70001"
   y2="300.29999"
   id="line34"
   style="stroke-width:6.34841;stroke-miterlimit:10;stroke-dasharray:none" />
		<line
   class="st0"
   x1="458.10001"
   y1="254.2"
   x2="464.60001"
   y2="284"
   id="line36"
   style="stroke-width:6.34841;stroke-miterlimit:10;stroke-dasharray:none" />
	</g><ellipse
     class="st0"
     cx="237.54933"
     cy="703.29498"
     id="circle40"
     rx="43.641651"
     ry="43.592773"
     style="stroke-width:13;stroke-miterlimit:10;stroke-dasharray:none" /></g>
</svg>
