<?xml version="1.0" encoding="UTF-8" standalone="no"?>
<!-- Generator: Adobe Illustrator 19.0.0, SVG Export Plug-In . SVG Version: 6.00 Build 0)  -->

<svg
   version="1.1"
   id="Layer_1"
   x="0px"
   y="0px"
   viewBox="0 0 512 512"
   style="enable-background:new 0 0 512 512;"
   xml:space="preserve"
   sodipodi:docname="marker_bank.svg"
   inkscape:version="1.1.1 (3bf5ae0d25, 2021-09-20)"
   inkscape:export-filename="C:\Users\PC\Desktop\marker_parking.png"
   inkscape:export-xdpi="96"
   inkscape:export-ydpi="96"
   xmlns:inkscape="http://www.inkscape.org/namespaces/inkscape"
   xmlns:sodipodi="http://sodipodi.sourceforge.net/DTD/sodipodi-0.dtd"
   xmlns="http://www.w3.org/2000/svg"
   xmlns:svg="http://www.w3.org/2000/svg"><defs
   id="defs45" /><sodipodi:namedview
   id="namedview43"
   pagecolor="#ffffff"
   bordercolor="#666666"
   borderopacity="1.0"
   inkscape:pageshadow="2"
   inkscape:pageopacity="0.0"
   inkscape:pagecheckerboard="0"
   showgrid="false"
   inkscape:zoom="1.4042969"
   inkscape:cx="263.8331"
   inkscape:cy="266.6815"
   inkscape:window-width="1920"
   inkscape:window-height="1129"
   inkscape:window-x="-8"
   inkscape:window-y="-8"
   inkscape:window-maximized="1"
   inkscape:current-layer="Layer_1" />
<path
   style="fill:#00214d;fill-opacity:1;stroke-width:0.969335"
   d="m 437.7928,189.92679 c 0,104.06598 -178.5355,321.43621 -178.5355,321.43621 0,0 -178.535496,-217.37023 -178.535496,-321.43621 0,-104.065952 79.933696,-188.4274852 178.535496,-188.4274852 98.60181,0 178.5355,84.3625282 178.5355,188.4274852 z"
   id="path2-4" /><path
   style="fill:#ffd200;fill-opacity:1;stroke-width:0.884341"
   d="m 420.72629,191.10553 c 0,95.77126 -161.46898,295.81569 -161.46898,295.81569 0,0 -161.468995,-200.04443 -161.468995,-295.81569 0,-95.771241 72.292695,-173.408618 161.468995,-173.408618 89.17629,0 161.46898,77.638293 161.46898,173.408618 z"
   id="path2" />




<g
   id="g12"
   transform="matrix(0.92411015,0,0,0.96128171,28.219781,-3.2388105)"
   style="fill:#00214d;fill-opacity:1">
</g>
<g
   id="g14"
   transform="matrix(0.92411015,0,0,0.96128171,28.219781,-3.2388105)"
   style="fill:#00214d;fill-opacity:1">
</g>
<g
   id="g16"
   transform="matrix(0.92411015,0,0,0.96128171,28.219781,-3.2388105)"
   style="fill:#00214d;fill-opacity:1">
</g>
<g
   id="g18"
   transform="matrix(0.92411015,0,0,0.96128171,28.219781,-3.2388105)"
   style="fill:#00214d;fill-opacity:1">
</g>
<g
   id="g20"
   transform="matrix(0.92411015,0,0,0.96128171,28.219781,-3.2388105)"
   style="fill:#00214d;fill-opacity:1">
</g>
<g
   id="g22"
   transform="matrix(0.92411015,0,0,0.96128171,28.219781,-3.2388105)"
   style="fill:#00214d;fill-opacity:1">
</g>
<g
   id="g24"
   transform="matrix(0.92411015,0,0,0.96128171,28.219781,-3.2388105)"
   style="fill:#00214d;fill-opacity:1">
</g>
<g
   id="g26"
   transform="matrix(0.92411015,0,0,0.96128171,28.219781,-3.2388105)"
   style="fill:#00214d;fill-opacity:1">
</g>
<g
   id="g28"
   transform="matrix(0.92411015,0,0,0.96128171,28.219781,-3.2388105)"
   style="fill:#00214d;fill-opacity:1">
</g>
<g
   id="g30"
   transform="matrix(0.92411015,0,0,0.96128171,28.219781,-3.2388105)"
   style="fill:#00214d;fill-opacity:1">
</g>
<g
   id="g32"
   transform="matrix(0.92411015,0,0,0.96128171,28.219781,-3.2388105)"
   style="fill:#00214d;fill-opacity:1">
</g>
<g
   id="g34"
   transform="matrix(0.92411015,0,0,0.96128171,28.219781,-3.2388105)"
   style="fill:#00214d;fill-opacity:1">
</g>
<g
   id="g36"
   transform="matrix(0.92411015,0,0,0.96128171,28.219781,-3.2388105)"
   style="fill:#00214d;fill-opacity:1">
</g>
<g
   id="g38"
   transform="matrix(0.92411015,0,0,0.96128171,28.219781,-3.2388105)"
   style="fill:#00214d;fill-opacity:1">
</g>
<g
   id="g40"
   transform="matrix(0.92411015,0,0,0.96128171,28.219781,-3.2388105)"
   style="fill:#00214d;fill-opacity:1">
</g>
<style
   type="text/css"
   id="style42">
	.st0{fill:#FFD200;}
</style><g
   id="g1205"
   transform="matrix(0.97543793,0,0,0.97543793,7.50679,0.56174825)"><path
     class="st0"
     d="m 330.86792,243.07602 c 30.53453,5.90503 50.36938,15.44392 50.36938,26.19409 0,17.91696 -55.1136,32.45241 -123.14757,32.45241 -68.03398,0 -123.14757,-14.53545 -123.14757,-32.45241 0,-10.54829 19.07778,-19.93577 48.65338,-25.8408"
     id="path4"
     style="stroke:#00214d;stroke-width:10;stroke-miterlimit:4;stroke-dasharray:none;stroke-opacity:1" /><polygon
     class="st0"
     points="109.9,136.9 109.9,106.2 258.4,58.7 401.7,106.2 401.7,136.9 "
     id="polygon6"
     transform="matrix(0.50470312,0,0,0.50470312,128.12867,51.94495)"
     style="stroke:#00214d;stroke-width:19.8136;stroke-miterlimit:4;stroke-dasharray:none;stroke-opacity:1" /><polygon
     class="st0"
     points="101,396.8 127.4,358 387.7,358 414.1,396.8 "
     id="polygon8"
     transform="matrix(0.50470312,0,0,0.50470312,128.12867,73.142481)"
     style="stroke:#00214d;stroke-width:19.8136;stroke-miterlimit:4;stroke-dasharray:none;stroke-opacity:1" /><line
     class="st0"
     x1="205.72723"
     y1="123.75501"
     x2="205.72723"
     y2="252.81679"
     id="line10"
     style="stroke:#00214d;stroke-width:9.99998;stroke-miterlimit:4;stroke-dasharray:none;stroke-opacity:1" /><line
     class="st0"
     x1="310.08011"
     y1="123.75501"
     x2="310.08011"
     y2="252.81679"
     id="line16"
     style="stroke:#00214d;stroke-width:9.99998;stroke-miterlimit:4;stroke-dasharray:none;stroke-opacity:1" /><g
     id="g6"
     style="fill:#00214d;fill-opacity:1;stroke:#00214d;stroke-width:3.43217;stroke-miterlimit:4;stroke-dasharray:none;stroke-opacity:1"
     transform="matrix(0.58272171,0,0,0.58272171,119.9932,-23.604327)"><path
       d="m 191.12626,352.23048 h 81.87009 l -3.33595,7.59412 h -81.87009 z m 0,15.18824 h 75.19821 l -3.33593,7.5941 h -75.19823 z m 87.58764,-28.20411 a 40.124374,37.970595 0 1 0 0,48.81406 v 10.6655 a 48.149246,45.564712 0 1 1 3.39579,-67.2099 z"
       id="path2-9"
       style="fill:#00214d;fill-opacity:1;stroke:#00214d;stroke-width:3.43217;stroke-miterlimit:4;stroke-dasharray:none;stroke-opacity:1" /></g></g></svg>
