<?xml version="1.0" encoding="UTF-8" standalone="no"?>
<!-- Generator: Adobe Illustrator 23.1.0, SVG Export Plug-In . SVG Version: 6.00 Build 0)  -->

<svg
   version="1.1"
   id="Layer_1"
   x="0px"
   y="0px"
   viewBox="0 0 1024 1024"
   xml:space="preserve"
   sodipodi:docname="road_condition.svg"
   width="1024"
   height="1024"
   inkscape:version="1.1.1 (3bf5ae0d25, 2021-09-20)"
   xmlns:inkscape="http://www.inkscape.org/namespaces/inkscape"
   xmlns:sodipodi="http://sodipodi.sourceforge.net/DTD/sodipodi-0.dtd"
   xmlns="http://www.w3.org/2000/svg"
   xmlns:svg="http://www.w3.org/2000/svg"><defs
   id="defs39">
	
	
	
	
	

		
		
	
			
		</defs><sodipodi:namedview
   id="namedview37"
   pagecolor="#ffffff"
   bordercolor="#666666"
   borderopacity="1.0"
   inkscape:pageshadow="2"
   inkscape:pageopacity="0.0"
   inkscape:pagecheckerboard="0"
   showgrid="false"
   inkscape:zoom="0.49649392"
   inkscape:cx="500.50965"
   inkscape:cy="480.36842"
   inkscape:window-width="1280"
   inkscape:window-height="953"
   inkscape:window-x="-8"
   inkscape:window-y="-8"
   inkscape:window-maximized="1"
   inkscape:current-layer="Layer_1" />
<style
   type="text/css"
   id="style2">
	.st0{fill:none;stroke:#FFD200;stroke-width:10;stroke-linecap:round;stroke-miterlimit:10;}
	.st1{fill:none;stroke:#FFD200;stroke-width:10;stroke-miterlimit:10;}
	.st2{fill:#FFD200;}
</style>

<g
   id="g3655"
   transform="matrix(1.0028707,0,0,1.0028707,-1.4698979,-0.07758575)"><line
     class="st0"
     x1="349.97873"
     y1="16.764133"
     x2="7.9657135"
     y2="1004.4594"
     id="line20"
     style="stroke-width:13;stroke-miterlimit:10;stroke-dasharray:none" /><line
     class="st0"
     x1="674.02161"
     y1="16.764133"
     x2="1016.0345"
     y2="1004.4594"
     id="line22"
     style="stroke-width:13;stroke-miterlimit:10;stroke-dasharray:none" /><g
     id="g26"
     style="stroke-width:6.03642;stroke-miterlimit:10;stroke-dasharray:none"
     transform="matrix(1.7466967,0,0,1.9068654,65.755009,17.951053)">
			<path
   class="st1"
   d="m 255.5,136.8 c -11.3,0 -21.9,7.1 -29.1,19.6 l -89.9,155.7 c -7.2,12.5 -8.1,25.2 -2.4,35 5.6,9.8 17.1,15.4 31.5,15.4 h 179.8 c 14.4,0 25.9,-5.6 31.5,-15.4 5.6,-9.8 4.8,-22.5 -2.4,-35 L 284.6,156.4 C 277.4,144 266.8,136.8 255.5,136.8 Z"
   id="path24"
   style="stroke-width:6.03642;stroke-miterlimit:10;stroke-dasharray:none" />
		</g><path
     d="m 494,598.30436 c 0,-11.76966 8.42612,-18.66117 18.28138,-18.66117 9.85522,0 17.71862,6.89151 17.71862,18.66117 0,11.44409 -7.86275,18.66041 -18.28138,18.66041 -9.57483,0 -17.71539,-7.21632 -17.71539,-18.66341 z m 8.42483,-39.17967 c -4.17171,-6.04236 -9.68274,-152.37534 -3.94235,-159.67417 4.55676,-5.79481 22.65594,-5.97859 27.03246,0 4.31256,5.89158 -1.40522,155.50342 -3.94236,159.67417 -2.76521,4.53834 -16.15835,4.33581 -19.14968,0 z"
     id="path35"
     style="fill:#ffd200;fill-opacity:1;stroke-width:9.58474;stroke-miterlimit:10;stroke-dasharray:none" /><line
     class="st0"
     x1="511.77188"
     y1="760.0246"
     x2="512.22815"
     y2="986.79956"
     id="line14-9"
     style="fill:none;stroke:#ffd200;stroke-width:13.225;stroke-linecap:round;stroke-miterlimit:4;stroke-dasharray:79.35, 79.35;stroke-dashoffset:0" /><line
     class="st0"
     x1="511.74786"
     y1="30.626616"
     x2="512.25214"
     y2="244.14772"
     id="line14-9-5"
     style="fill:none;stroke:#ffd200;stroke-width:13.4929;stroke-linecap:round;stroke-miterlimit:4;stroke-dasharray:80.9574, 80.9574;stroke-dashoffset:22.9379" /></g></svg>
