<?xml version="1.0" encoding="UTF-8" standalone="no"?>
<!-- Creator: CorelDRAW 2019 (64-Bit) -->

<svg
   xml:space="preserve"
   width="2048"
   height="1381.499"
   version="1.1"
   style="clip-rule:evenodd;fill-rule:evenodd;image-rendering:optimizeQuality;shape-rendering:geometricPrecision;text-rendering:geometricPrecision"
   viewBox="0 0 54186.666 36552.162"
   id="svg71"
   sodipodi:docname="Logo_yellowBorder.svg"
   inkscape:version="1.1.1 (3bf5ae0d25, 2021-09-20)"
   inkscape:export-filename="C:\Users\PC\Documents\P_R_O_J_E_K_T_I\AMSCG\Slike\Logo\Logo_yellowBorder.png"
   inkscape:export-xdpi="72"
   inkscape:export-ydpi="72"
   xmlns:inkscape="http://www.inkscape.org/namespaces/inkscape"
   xmlns:sodipodi="http://sodipodi.sourceforge.net/DTD/sodipodi-0.dtd"
   xmlns="http://www.w3.org/2000/svg"
   xmlns:svg="http://www.w3.org/2000/svg"><sodipodi:namedview
   id="namedview73"
   pagecolor="#ffffff"
   bordercolor="#666666"
   borderopacity="1.0"
   inkscape:pageshadow="2"
   inkscape:pageopacity="0.0"
   inkscape:pagecheckerboard="0"
   inkscape:document-units="mm"
   showgrid="false"
   inkscape:zoom="0.22645918"
   inkscape:cx="783.8057"
   inkscape:cy="876.53764"
   inkscape:window-width="1440"
   inkscape:window-height="829"
   inkscape:window-x="-8"
   inkscape:window-y="-8"
   inkscape:window-maximized="1"
   inkscape:current-layer="Layer_x0020_1"
   inkscape:snap-bbox="true"
   units="px" />
 <defs
   id="defs4">
  <style
   type="text/css"
   id="style2">
   <![CDATA[
    .str0 {stroke:#454364;stroke-width:17.64;stroke-miterlimit:2.613}
    .str1 {stroke:#403E6D;stroke-width:7.62;stroke-miterlimit:2.613}
    .fil3 {fill:none}
    .fil5 {fill:none;fill-rule:nonzero}
    .fil2 {fill:#FEFEFE}
    .fil1 {fill:#FFF212}
    .fil0 {fill:#454364}
    .fil6 {fill:#FFF212;fill-rule:nonzero}
    .fil4 {fill:#454364;fill-rule:nonzero}
   ]]>
  </style>
 </defs>
 <g
   id="Layer_x0020_1"
   inkscape:label="Layer 1"
   inkscape:groupmode="layer"><g
   id="g1469"
   transform="matrix(1.9961014,0,0,1.9961014,-4.4757327e-6,4.5939622e-7)"><g
     id="g1060"
     transform="matrix(0.99585057,0,0,0.99585057,24.896925,-0.02371223)"><path
       class="fil0"
       d="m 13604.681,0.02381057 c 7527.395,0 13629.679,4116.34478943 13629.679,9194.12778943 0,5077.7814 -6102.284,9193.9434 -13629.679,9193.9434 C 6077.098,18388.095 -25.000659,14271.933 -25.000659,9194.1516 -25.000659,4116.3686 6077.098,0.02381057 13604.681,0.02381057 Z"
       id="path7-2"
       style="clip-rule:evenodd;fill:#ffd200;fill-opacity:1;fill-rule:evenodd;stroke-width:9.08653;image-rendering:optimizeQuality;shape-rendering:geometricPrecision;text-rendering:geometricPrecision" /><g
       id="_2898932668400"
       transform="matrix(6.4856945,0,0,6.4856945,-45330.856,-73537.155)"
       style="clip-rule:evenodd;fill-rule:evenodd;image-rendering:optimizeQuality;shape-rendering:geometricPrecision;text-rendering:geometricPrecision">
   
   
   
   
   
   
   
   
   
   
   
   
   
   
   
   
   
   
   
   
   
   
   
   
   
   
   
   
   
   
   <path
   class="fil0"
   d="m 9087.0047,11347 c 1153.5473,0 2088.6993,630.815 2088.6993,1408.967 0,778.152 -935.152,1408.939 -2088.6993,1408.939 -1153.5748,0 -2088.6995,-630.787 -2088.6995,-1408.939 0,-778.152 935.1247,-1408.967 2088.6995,-1408.967 z"
   id="path7"
   style="fill:#00214d;fill-opacity:1;stroke-width:1.39247" /><path
   class="fil1"
   d="m 9087.0047,11711.033 c 932.3123,0 1688.1003,467.827 1688.1003,1044.92 0,577.108 -755.788,1044.921 -1688.1003,1044.921 -932.3258,0 -1688.1009,-467.813 -1688.1009,-1044.921 0,-577.093 755.7751,-1044.92 1688.1009,-1044.92 z"
   id="path9"
   style="fill:#ffd200;fill-opacity:1;stroke-width:1.39247" /><path
   class="fil0"
   d="m 9853.446,13459.26 c 71.2107,0 139.8314,-10.75 204.317,-30.843 l -381.4248,7.854 c 56.5063,15.01 115.7975,22.989 177.1078,22.989 z m 301.594,-69.595 c 41.217,-20.191 80.137,-44.434 116.188,-72.116 l -797.0063,27.585 c 19.7452,13.117 40.2701,25.245 61.3799,36.329 z m 163.142,-111.69 c 32.876,-30.286 62.883,-63.803 89.382,-99.965 l -1096.5951,15.4 c 19.2439,24.856 40.2702,48.43 62.7585,70.348 z m 113.931,-135.738 c 19.62,-30.745 36.942,-63.148 51.605,-96.901 l -1253.0804,16.514 c 10.7777,23.185 22.8782,45.701 36.0788,67.354 z m 66.449,-133.997 c 13.799,-37.805 24.437,-77.226 31.455,-117.816 l -1349.7171,17.795 c 5.918,29.535 13.8411,58.442 23.3377,86.403 z m 36.705,-153.867 c 3.203,-26.819 4.902,-54.153 4.902,-81.835 l -0.08,-8.662 -1373.1945,18.938 c 0.2785,19.258 1.476,38.404 3.2862,57.244 z m 3.412,-126.158 c -2.66,-41.063 -8.87,-81.18 -18.464,-119.919 l -1337.9378,19.035 c -6.0572,27.947 -10.3878,56.743 -12.8942,85.887 z m -28.226,-155.427 c -11.265,-36.83 -25.44,-72.45 -42.442,-106.44 l -1238.4874,19.522 c -10.7777,23.324 -20.1908,47.47 -28.3367,72.13 z m -61.463,-141.864 c -20.038,-34.854 -43.069,-67.855 -68.718,-98.503 l -1069.4423,19.592 c -15.888,20.455 -30.5368,41.871 -44.0855,64.067 z m -101.218,-134.763 c -39.129,-40.535 -83.089,-76.335 -131.087,-106.329 l -758.4906,21.277 c -30.2026,21.249 -58.5114,45.088 -84.8569,70.835 z m -196.283,-142.352 c -90.176,-43.542 -191.2409,-67.966 -298.043,-67.966 -95.9549,0 -187.2728,19.745 -270.2081,55.281 z"
   id="path11"
   style="fill:#00214d;fill-opacity:1;stroke-width:1.39247" /><path
   class="fil0"
   d="m 8308.2679,13459.26 c -71.1968,0 -139.7897,-10.75 -204.2887,-30.843 l 381.4104,7.854 c -56.4784,15.01 -115.7975,22.989 -177.1217,22.989 z m -301.5525,-69.595 c -41.217,-20.191 -80.1643,-44.434 -116.2153,-72.116 l 797.0199,27.585 c -19.7591,13.117 -40.284,25.245 -61.3938,36.329 z m -163.1692,-111.69 c -32.8761,-30.286 -62.8977,-63.803 -89.3546,-99.965 l 1096.5812,15.4 c -19.2579,24.856 -40.2841,48.43 -62.7446,70.348 z m -113.9316,-135.738 c -19.6338,-30.745 -36.9421,-63.148 -51.5909,-96.901 l 1253.0665,16.514 c -10.7498,23.185 -22.9061,45.701 -36.0788,67.354 z M 7663.18,13008.24 c -13.8132,-37.805 -24.4517,-77.226 -31.4697,-117.816 l 1349.7036,17.795 c -5.9179,29.535 -13.7993,58.442 -23.3238,86.403 z m -36.7332,-153.867 c -3.1888,-26.819 -4.9015,-54.153 -4.9015,-81.835 l 0.097,-8.662 1373.2084,18.938 c -0.2924,19.258 -1.4899,38.404 -3.314,57.244 z m -3.3977,-126.158 c 2.6597,-41.063 8.8979,-81.18 18.4502,-119.919 l 1337.9513,19.035 c 6.0572,27.947 10.3878,56.743 12.9221,85.887 z m 28.2114,-155.427 c 11.2651,-36.83 25.4543,-72.45 42.4424,-106.44 l 1238.5152,19.522 c 10.7499,23.324 20.1629,47.47 28.3228,72.13 z m 61.4774,-141.864 c 20.0654,-34.854 43.069,-67.855 68.7182,-98.503 l 1069.442,19.592 c 15.888,20.455 30.5228,41.871 44.0855,64.067 z m 101.2462,-134.763 c 39.1005,-40.535 83.0606,-76.335 131.059,-106.329 l 758.4903,21.277 c 30.2026,21.249 58.5393,45.088 84.8847,70.835 z m 196.2542,-142.352 c 90.1622,-43.542 191.2413,-67.966 298.0296,-67.966 95.9688,0 187.2728,19.745 270.2498,55.281 z"
   id="path13"
   style="fill:#00214d;fill-opacity:1;stroke-width:1.39247" /><path
   class="fil2"
   d="m 8983.252,13391.976 -31.1773,92.697 c -77.7971,-12.268 -130.1956,-29.2 -198.0505,-63.26 l 31.4558,-94.911 c -58.4836,-30.731 -111.6758,-70.152 -157.85,-116.563 l -84.3695,59.82 c -54.3062,-53.818 -86.681,-97.417 -122.2446,-165.647 l 86.2772,-62.021 c -28.1,-56.631 -48.1376,-118.011 -58.6228,-182.58 h -108.3618 c -5.9458,-37.666 -7.6446,-65.321 -7.9927,-103.586 0.3481,-38.223 2.0469,-65.919 7.9927,-103.543 h 108.3618 c 10.4574,-64.569 30.5507,-125.893 58.6924,-182.539 l -86.3468,-62.062 c 35.5636,-68.189 67.9384,-111.829 122.2446,-165.648 l 84.3695,59.821 c 46.1464,-46.411 99.3664,-85.776 157.85,-116.48 l -31.4558,-95.008 c 67.8549,-34.046 120.2534,-50.978 198.0505,-63.218 l 31.1495,92.641 c 32.9179,-5.236 66.6573,-7.951 101.0373,-7.951 34.38,0 68.0916,2.785 101.0374,7.978 l 31.1634,-92.668 c 77.7692,12.24 130.2095,29.172 198.0365,63.218 l -31.4419,95.008 c 58.4418,30.704 111.7037,70.069 157.8639,116.452 l 84.3139,-59.793 c 54.334,53.819 86.681,97.459 122.2724,165.648 l -86.3468,62.062 c 28.2114,56.618 48.2072,117.998 58.6924,182.539 h 108.3339 c 5.9459,37.624 7.6725,65.32 8.0624,103.543 -0.3899,38.265 -2.1165,65.92 -8.0624,103.586 h -108.3339 c -10.4156,64.569 -30.4532,125.949 -58.6228,182.58 l 86.2772,62.021 c -35.5914,68.23 -67.9384,111.829 -122.2724,165.647 l -84.3139,-59.792 c -46.1324,46.411 -99.4221,85.832 -157.8639,116.535 l 31.4419,94.911 c -67.827,34.06 -120.2673,50.992 -198.0365,63.26 l -31.1913,-92.739 c -32.9179,5.208 -66.6295,7.979 -101.0095,7.979 -34.38,0 -68.0916,-2.743 -101.0095,-7.937 z"
   id="path15"
   style="fill:#ffffff;fill-opacity:1;stroke-width:1.39247" /><path
   class="fil3 str0"
   d="m 8983.252,13391.976 -31.1773,92.697 c -77.7971,-12.268 -130.1956,-29.2 -198.0505,-63.26 l 31.4558,-94.911 c -58.4836,-30.731 -111.6758,-70.152 -157.85,-116.563 l -84.3695,59.82 c -54.3062,-53.818 -86.681,-97.417 -122.2446,-165.647 l 86.2772,-62.021 c -28.1,-56.631 -48.1376,-118.011 -58.6228,-182.58 h -108.3618 c -5.9458,-37.666 -7.6446,-65.321 -7.9927,-103.586 0.3481,-38.223 2.0469,-65.919 7.9927,-103.543 h 108.3618 c 10.4574,-64.569 30.5507,-125.893 58.6924,-182.539 l -86.3468,-62.062 c 35.5636,-68.189 67.9384,-111.829 122.2446,-165.648 l 84.3695,59.821 c 46.1464,-46.411 99.3664,-85.776 157.85,-116.48 l -31.4558,-95.008 c 67.8549,-34.046 120.2534,-50.978 198.0505,-63.218 l 31.1495,92.641 c 32.9179,-5.236 66.6573,-7.951 101.0373,-7.951 34.38,0 68.0916,2.785 101.0374,7.978 l 31.1634,-92.668 c 77.7692,12.24 130.2095,29.172 198.0365,63.218 l -31.4419,95.008 c 58.4418,30.704 111.7037,70.069 157.8639,116.452 l 84.3139,-59.793 c 54.334,53.819 86.681,97.459 122.2724,165.648 l -86.3468,62.062 c 28.2114,56.618 48.2072,117.998 58.6924,182.539 h 108.3339 c 5.9459,37.624 7.6725,65.32 8.0624,103.543 -0.3899,38.265 -2.1165,65.92 -8.0624,103.586 h -108.3339 c -10.4156,64.569 -30.4532,125.949 -58.6228,182.58 l 86.2772,62.021 c -35.5914,68.23 -67.9384,111.829 -122.2724,165.647 l -84.3139,-59.792 c -46.1324,46.411 -99.4221,85.832 -157.8639,116.535 l 31.4419,94.911 c -67.827,34.06 -120.2673,50.992 -198.0365,63.26 l -31.1913,-92.739 c -32.9179,5.208 -66.6295,7.979 -101.0095,7.979 -34.38,0 -68.0916,-2.743 -101.0095,-7.937 z"
   id="path17"
   style="stroke:#00214d;stroke-opacity:1" /><path
   class="fil1"
   d="m 8029.3569,12341.193 h 2115.2541 c 50.282,0 91.415,42.15 91.415,93.671 v 642.192 c 0,51.521 -41.133,93.657 -91.415,93.657 H 8029.3569 c -50.268,0 -91.3876,-42.136 -91.3876,-93.657 v -642.192 c 0,-51.521 41.1196,-93.671 91.3876,-93.671 z"
   id="path19"
   style="fill:#ffd200;fill-opacity:1;stroke-width:1.39247" /><path
   class="fil3 str0"
   d="m 8029.3569,12341.193 h 2115.2541 c 50.282,0 91.415,42.15 91.415,93.671 v 642.192 c 0,51.521 -41.133,93.657 -91.415,93.657 H 8029.3569 c -50.268,0 -91.3876,-42.136 -91.3876,-93.657 v -642.192 c 0,-51.521 41.1196,-93.671 91.3876,-93.671 z"
   id="path21"
   style="stroke:#00214d;stroke-opacity:1" /><path
   class="fil4"
   d="m 8843.3231,13013.295 h -104.073 l -41.3144,-117.009 h -189.2641 l -39.0308,117.009 h -101.3994 l 184.4322,-514.92 h 101.0652 z m -176.0635,-203.676 -65.2509,-191.13 -63.8864,191.13 z m 225.4682,203.676 v -514.92 h 143.0341 l 85.9291,351.277 84.8708,-351.277 h 143.3684 v 514.92 H 9261.23 v -405.347 l -94.0332,405.347 h -92.0699 l -93.6851,-405.347 v 405.347 z m 528.0232,-167.486 92.9889,-9.942 c 5.5002,34.018 16.8767,58.943 34.0876,74.901 17.0855,15.86 40.103,23.867 69.1916,23.867 30.7735,0 53.9999,-7.06 69.5676,-21.361 15.6514,-14.12 23.5049,-30.648 23.5049,-49.641 0,-12.184 -3.3141,-22.516 -9.9422,-31.024 -6.475,-8.634 -17.9907,-16.042 -34.38,-22.28 -11.1398,-4.303 -36.7333,-11.78 -76.5161,-22.586 -51.2845,-13.771 -87.1823,-30.787 -107.7908,-50.95 -29.1165,-28.253 -43.6677,-62.772 -43.6677,-103.572 0,-26.234 6.8091,-50.713 20.4832,-73.592 13.6879,-22.794 33.4331,-40.172 59.1101,-52.189 25.7746,-11.85 56.7431,-17.852 93.1282,-17.852 59.5558,0 104.1704,14.12 134.2755,42.471 30.0216,28.406 45.7704,66.184 47.316,113.5 l -95.6067,4.553 c -4.0939,-26.485 -12.8664,-45.562 -26.3455,-57.036 -13.4373,-11.641 -33.628,-17.378 -60.5026,-17.378 -27.7519,0 -49.5858,6.113 -65.2649,18.604 -10.1233,7.853 -15.2197,18.548 -15.2197,31.846 0,12.239 4.7622,22.697 14.231,31.288 12.0031,11.056 41.3423,22.544 87.8368,34.408 46.5362,12.003 80.9162,24.34 103.1957,37.068 22.2794,12.81 39.727,30.188 52.3567,52.384 12.574,22.196 18.8401,49.544 18.8401,82.016 0,29.507 -7.4915,57.189 -22.5719,82.852 -15.1083,25.775 -36.3851,44.949 -63.9142,57.398 -27.5987,12.601 -61.9648,18.854 -103.0982,18.854 -59.8621,0 -105.8275,-14.997 -137.9238,-45.075 -32.0546,-30.105 -51.201,-74.009 -57.3696,-131.532 z"
   id="path23"
   style="fill:#00214d;fill-opacity:1;stroke-width:1.39247" /><path
   class="fil5 str1"
   d="m 8843.3231,13013.295 h -104.073 l -41.3144,-117.009 h -189.2641 l -39.0308,117.009 h -101.3994 l 184.4322,-514.92 h 101.0652 z m -176.0635,-203.676 -65.2509,-191.13 -63.8864,191.13 z m 225.4682,203.676 v -514.92 h 143.0341 l 85.9291,351.277 84.8708,-351.277 h 143.3684 v 514.92 H 9261.23 v -405.347 l -94.0332,405.347 h -92.0699 l -93.6851,-405.347 v 405.347 z m 528.0232,-167.486 92.9889,-9.942 c 5.5002,34.018 16.8767,58.943 34.0876,74.901 17.0855,15.86 40.103,23.867 69.1916,23.867 30.7735,0 53.9999,-7.06 69.5676,-21.361 15.6514,-14.12 23.5049,-30.648 23.5049,-49.641 0,-12.184 -3.3141,-22.516 -9.9422,-31.024 -6.475,-8.634 -17.9907,-16.042 -34.38,-22.28 -11.1398,-4.303 -36.7333,-11.78 -76.5161,-22.586 -51.2845,-13.771 -87.1823,-30.787 -107.7908,-50.95 -29.1165,-28.253 -43.6677,-62.772 -43.6677,-103.572 0,-26.234 6.8091,-50.713 20.4832,-73.592 13.6879,-22.794 33.4331,-40.172 59.1101,-52.189 25.7746,-11.85 56.7431,-17.852 93.1282,-17.852 59.5558,0 104.1704,14.12 134.2755,42.471 30.0216,28.406 45.7704,66.184 47.316,113.5 l -95.6067,4.553 c -4.0939,-26.485 -12.8664,-45.562 -26.3455,-57.036 -13.4373,-11.641 -33.628,-17.378 -60.5026,-17.378 -27.7519,0 -49.5858,6.113 -65.2649,18.604 -10.1233,7.853 -15.2197,18.548 -15.2197,31.846 0,12.239 4.7622,22.697 14.231,31.288 12.0031,11.056 41.3423,22.544 87.8368,34.408 46.5362,12.003 80.9162,24.34 103.1957,37.068 22.2794,12.81 39.727,30.188 52.3567,52.384 12.574,22.196 18.8401,49.544 18.8401,82.016 0,29.507 -7.4915,57.189 -22.5719,82.852 -15.1083,25.775 -36.3851,44.949 -63.9142,57.398 -27.5987,12.601 -61.9648,18.854 -103.0982,18.854 -59.8621,0 -105.8275,-14.997 -137.9238,-45.075 -32.0546,-30.105 -51.201,-74.009 -57.3696,-131.532 z"
   id="path25"
   style="stroke:#00214d;stroke-opacity:1" /><path
   class="fil6"
   d="m 8460.924,13949.213 31.1912,19.342 c -10.0118,17.587 -22.2237,29.45 -36.6915,35.577 -14.3981,6.085 -30.9406,6.782 -49.5161,2.061 -22.9896,-5.862 -39.9081,-18.52 -50.7136,-38.014 -10.8055,-19.481 -12.755,-42.874 -5.8205,-70.139 7.3383,-28.824 20.4832,-49.307 39.4207,-61.463 18.9654,-12.184 40.5626,-15.178 64.8054,-8.982 21.2073,5.333 36.8029,16.028 46.8704,31.888 5.9737,9.441 9.2042,21.569 9.608,36.413 l -36.7332,-0.543 c 0.2367,-9.497 -2.228,-17.671 -7.4358,-24.494 -5.1382,-6.892 -12.3651,-11.46 -21.6807,-13.827 -12.8385,-3.258 -24.4239,-1.309 -34.7699,5.848 -10.3182,7.213 -18.116,21.096 -23.3795,41.733 -5.5559,21.903 -5.5838,38.529 -0.097,49.85 5.5281,11.251 14.5792,18.52 27.1949,21.708 9.2877,2.368 18.0324,1.435 26.248,-2.743 8.2155,-4.219 15.345,-12.281 21.4997,-24.215 z"
   id="path27"
   style="fill:#ffd200;fill-opacity:1;stroke-width:1.39247" /><path
   class="fil6"
   d="m 8562.574,13929.747 26.3176,4.483 c 17.0717,2.925 27.8215,4.025 32.3331,3.314 4.4837,-0.71 8.2434,-2.603 11.265,-5.736 2.9799,-3.134 4.9572,-7.311 5.8762,-12.602 0.9887,-5.946 0.2089,-11.015 -2.3254,-15.136 -2.5343,-4.22 -6.6003,-7.297 -12.2119,-9.232 -2.7849,-0.892 -11.4461,-2.604 -25.8302,-5.055 l -27.7798,-4.735 z m -52.9555,95.606 30.1051,-176.161 74.8729,12.769 c 18.8401,3.245 32.2635,7.158 40.2284,11.767 8.0067,4.623 13.869,11.432 17.6147,20.385 3.7457,8.968 4.7344,18.646 2.9381,29.075 -2.2419,13.256 -8.0067,23.435 -17.2248,30.746 -9.246,7.296 -21.82,10.736 -37.6662,10.304 6.9205,5.834 12.4486,11.864 16.5425,18.046 4.0938,6.239 9.2042,16.933 15.3589,32.083 l 15.6374,38.042 -42.5538,-7.255 -19.1464,-42.735 c -6.8092,-15.233 -11.5575,-24.939 -14.3424,-29.088 -2.7432,-4.164 -5.9041,-7.171 -9.4688,-9.177 -3.5229,-1.949 -9.3713,-3.648 -17.5311,-5.054 l -7.213,-1.212 -12.5879,73.564 z"
   id="path29"
   style="fill:#ffd200;fill-opacity:1;stroke-width:1.39247" /><polygon
   class="fil6"
   points="10942.07,15728.07 11011.95,15711.88 11016.85,15732.96 10921.72,15755.01 10892.72,15629.96 10985.44,15608.47 10990.33,15629.6 10922.87,15645.26 10929.31,15672.99 10992.07,15658.41 10996.96,15679.49 10934.18,15694.05 "
   id="polygon31"
   style="fill:#ffd200;fill-opacity:1"
   transform="matrix(1.3924663,0,0,1.3924663,-5523.9632,-7922.9093)" /><polygon
   class="fil6"
   points="10281.65,15790.96 10239.53,15701.99 10230.2,15785.19 10206.28,15782.54 10220.57,15654.94 10245.62,15657.74 10288.3,15748.8 10297.85,15663.6 10321.76,15666.28 10307.48,15793.86 "
   id="polygon33"
   style="fill:#ffd200;fill-opacity:1"
   transform="matrix(1.3924663,0,0,1.3924663,-5523.9632,-7922.9093)" /><path
   class="fil6"
   d="m 9512.7512,13941.652 26.3316,-4.484 c 17.0577,-2.924 27.5987,-5.472 31.609,-7.616 3.9963,-2.173 6.8927,-5.194 8.6889,-9.177 1.8242,-3.968 2.2698,-8.535 1.3368,-13.813 -1.0165,-5.946 -3.3976,-10.429 -7.199,-13.535 -3.7875,-3.105 -8.6333,-4.651 -14.5652,-4.651 -2.966,0.112 -11.6271,1.393 -26.0809,3.844 l -27.7658,4.72 z m -18.1856,107.749 -30.1051,-176.147 74.9008,-12.81 c 18.8122,-3.231 32.7369,-3.969 41.8436,-2.242 9.0789,1.699 16.807,6.154 23.3516,13.34 6.5029,7.268 10.6663,16.055 12.4208,26.47 2.2698,13.201 0.2785,24.758 -6.0293,34.742 -6.3079,9.915 -16.9881,17.337 -32.0407,22.21 8.4244,3.203 15.6096,7.06 21.5275,11.53 5.9459,4.511 14.3007,12.936 25.148,25.148 l 27.3898,30.704 -42.5399,7.254 -32.3052,-33.92 c -11.446,-12.128 -19.1742,-19.717 -23.1567,-22.669 -3.9964,-2.994 -7.9649,-4.832 -11.9473,-5.529 -3.9964,-0.654 -10.0537,-0.32 -18.2692,1.073 l -7.1991,1.225 12.574,73.564 z"
   id="path35"
   style="fill:#ffd200;fill-opacity:1;stroke-width:1.39247" /><polygon
   class="fil6"
   points="10361.66,15775.18 10433.32,15778.25 10432.4,15799.85 10334.85,15795.69 10340.32,15667.45 10435.42,15671.5 10434.5,15693.21 10365.28,15690.25 10364.09,15718.67 10428.46,15721.41 10427.55,15743.01 10363.16,15740.27 "
   id="polygon37"
   style="fill:#ffd200;fill-opacity:1"
   transform="matrix(1.3924663,0,0,1.3924663,-5523.9632,-7922.9093)" /><path
   class="fil6"
   d="m 9321.0643,13978.845 c 2.2697,20.121 8.6333,34.881 19.0768,44.197 10.4574,9.315 22.8365,13.2 37.1092,11.585 14.3285,-1.615 25.4404,-8.062 33.4749,-19.383 8.0067,-11.321 10.903,-27.292 8.5915,-47.901 -2.2836,-20.344 -8.4383,-35.062 -18.478,-44.03 -10.0675,-9.051 -22.4883,-12.713 -37.3042,-11.084 -14.7462,1.644 -26.1087,8.063 -34.0179,19.244 -7.9092,11.14 -10.722,26.931 -8.4523,47.372 z m -36.7889,5.375 c -2.0748,-18.13 -1.0583,-33.6 2.9798,-46.508 3.0495,-9.497 7.6447,-18.214 13.8272,-26.193 6.1826,-7.979 13.2285,-14.189 21.1794,-18.575 10.541,-5.918 23.0593,-9.678 37.5131,-11.293 26.1366,-2.952 48.0262,2.813 65.5573,17.294 17.5312,14.482 27.8911,36.163 31.1077,65.112 3.2305,28.671 -2.0191,51.995 -15.7906,69.916 -13.7993,17.949 -33.7534,28.406 -59.8203,31.33 -26.429,2.952 -48.3325,-2.757 -65.7384,-17.183 -17.3779,-14.328 -27.6822,-35.647 -30.8152,-63.9 z"
   id="path39"
   style="fill:#ffd200;fill-opacity:1;stroke-width:1.39247" /><path
   class="fil6"
   d="m 9186.8027,14011.039 -1.657,-30.105 77.6857,-4.247 3.8989,71.113 c -7.1294,7.686 -17.74,14.76 -31.7761,21.082 -14.0082,6.363 -28.3645,9.956 -43.0272,10.75 -18.673,1.002 -35.1876,-2.019 -49.5022,-9.093 -14.3006,-7.088 -25.3568,-17.684 -33.1546,-31.874 -7.7282,-14.217 -12.1145,-29.84 -13.0474,-46.981 -1.0165,-18.576 1.9634,-35.327 8.9953,-50.171 6.9902,-14.913 17.7679,-26.624 32.3749,-35.16 11.1118,-6.517 25.2036,-10.276 42.2613,-11.195 22.1542,-1.198 39.7132,2.478 52.677,11.112 12.9639,8.605 21.6946,20.998 26.1366,37.206 l -35.3826,8.634 c -3.0216,-8.634 -8.132,-15.262 -15.3589,-19.982 -7.199,-4.693 -15.9994,-6.712 -26.4011,-6.183 -15.7349,0.864 -27.9886,6.545 -36.7333,17.086 -8.7586,10.457 -12.6018,25.482 -11.5296,45.13 1.1697,21.179 6.7813,36.858 16.7514,46.926 10.0118,10.081 22.6136,14.69 37.875,13.883 7.5611,-0.418 15.0248,-2.354 22.4605,-5.737 7.4358,-3.384 13.7715,-7.283 18.9654,-11.822 l -1.2253,-22.642 z"
   id="path41"
   style="fill:#ffd200;fill-opacity:1;stroke-width:1.39247" /><polygon
   class="fil6"
   points="10493.57,13945.66 10455.48,13944.93 10455.89,13923.22 10557.88,13925.15 10557.47,13946.86 10519.49,13946.15 10517.47,14052.75 10491.56,14052.28 "
   id="polygon43"
   style="fill:#ffd200;fill-opacity:1"
   transform="matrix(1.3924663,0,0,1.3924663,-5523.9632,-7922.9093)" /><path
   class="fil6"
   d="m 9226.7387,11558.558 c -0.8912,20.246 3.1052,35.772 11.9473,46.619 8.87,10.862 20.4971,16.599 34.8535,17.253 14.3981,0.627 26.4011,-3.996 36.0788,-13.966 9.7054,-9.957 14.9968,-25.246 15.9437,-45.966 0.9051,-20.469 -2.8824,-35.911 -11.4322,-46.383 -8.5079,-10.457 -20.1907,-16.041 -35.0623,-16.695 -14.8854,-0.697 -27.0556,3.843 -36.6497,13.674 -9.4966,9.761 -14.7462,24.939 -15.6791,45.464 z m -37.1789,-0.46 c 0.8076,-18.158 4.2053,-33.294 10.1789,-45.394 4.4838,-8.926 10.3739,-16.849 17.7122,-23.742 7.3801,-6.934 15.2893,-11.919 23.7973,-15.052 11.3625,-4.206 24.2846,-5.974 38.808,-5.348 26.3176,1.17 46.9957,10.277 62.0483,27.293 15.0665,17.058 21.987,40.089 20.6781,69.178 -1.2811,28.824 -10.1511,51.006 -26.5543,66.601 -16.3893,15.596 -37.6941,22.767 -63.9421,21.597 -26.5265,-1.169 -47.302,-10.206 -62.2432,-27.125 -14.9273,-16.904 -21.7503,-39.56 -20.4832,-68.008 z"
   id="path45"
   style="fill:#ffd200;fill-opacity:1;stroke-width:1.39247" /><path
   class="fil6"
   d="m 8875.684,11562.025 c 1.1418,20.191 6.6699,35.271 16.6121,45.157 9.9144,9.887 22.0427,14.426 36.3851,13.619 14.3842,-0.836 25.886,-6.656 34.5193,-17.531 8.6194,-10.876 12.3372,-26.666 11.1676,-47.344 -1.1558,-20.456 -6.5168,-35.452 -16.0691,-45.005 -9.5662,-9.552 -21.7364,-13.924 -36.5801,-13.075 -14.8576,0.836 -26.5543,6.628 -35.0344,17.322 -8.5219,10.722 -12.1563,26.346 -11.0005,46.857 z m -37.0535,3.314 c -1.0583,-18.158 0.8076,-33.6 5.5141,-46.23 3.5647,-9.33 8.6333,-17.768 15.2336,-25.413 6.6281,-7.588 14.0082,-13.395 22.1681,-17.391 10.8612,-5.32 23.5326,-8.397 38.0839,-9.232 26.2759,-1.49 47.7477,5.472 64.4712,20.914 16.6957,15.401 25.8999,37.625 27.5708,66.686 1.6153,28.796 -4.9293,51.758 -19.6477,68.927 -14.7601,17.155 -35.2572,26.498 -61.4356,27.988 -26.5543,1.49 -48.0818,-5.403 -64.6661,-20.692 -16.6121,-15.331 -25.691,-37.151 -27.2923,-65.557 z"
   id="path47"
   style="fill:#ffd200;fill-opacity:1;stroke-width:1.39247" /><path
   class="fil6"
   d="m 9455.0057,11608.979 35.2572,1.796 c 0.362,11.947 3.3558,21.179 8.8979,27.529 5.5977,6.433 13.7993,10.458 24.6745,12.073 11.4739,1.671 20.4971,0.501 27.0556,-3.426 6.5724,-4.038 10.346,-9.287 11.2929,-15.818 0.5988,-4.136 -0.084,-7.895 -2.1166,-11.223 -2.0051,-3.287 -5.9179,-6.475 -11.6828,-9.525 -3.9963,-2.061 -13.1031,-6.057 -27.4733,-11.975 -18.4223,-7.561 -30.9685,-15.387 -37.6941,-23.477 -9.3713,-11.321 -13.0474,-23.95 -11.0144,-37.959 1.3368,-9.023 5.1243,-17.016 11.4043,-24.131 6.2661,-7.074 14.4817,-11.975 24.7302,-14.635 10.2207,-2.715 22.0985,-3.022 35.6889,-1.016 22.2238,3.286 38.2093,10.624 47.9705,22.014 9.7612,11.405 13.7297,25.26 11.8499,41.607 l -35.8978,-3.731 c -0.1671,-9.33 -2.4786,-16.348 -6.9345,-21.068 -4.4141,-4.735 -11.641,-7.826 -21.6946,-9.316 -10.3739,-1.518 -18.8262,-0.599 -25.3429,2.785 -4.1774,2.172 -6.6003,5.556 -7.2547,10.151 -0.6267,4.149 0.5987,8.007 3.7039,11.502 3.9407,4.442 14.2867,9.97 31.0659,16.695 16.7514,6.656 28.9633,12.811 36.608,18.395 7.7142,5.639 13.298,12.602 16.8767,20.873 3.5925,8.299 4.5673,18.032 2.9102,29.214 -1.5038,10.123 -5.7091,19.202 -12.6714,27.209 -6.9345,8.006 -15.8881,13.381 -26.7632,16.194 -10.9309,2.771 -24.1315,3.008 -39.4486,0.738 -22.3491,-3.314 -38.7384,-11.028 -49.2237,-23.115 -10.4156,-12.1 -15.3867,-28.225 -14.774,-48.36 z"
   id="path49"
   style="fill:#ffd200;fill-opacity:1;stroke-width:1.39247" /><polygon
   class="fil6"
   points="10261.63,13963.6 10248.5,14066.97 10223.73,14069.98 10186.35,13972.73 10198.53,14073.02 10174.63,14075.94 10159.15,13948.54 10197.65,13943.84 10231.32,14027.96 10243.63,13938.26 10282.22,13933.57 10297.68,14060.99 10273.79,14063.89 "
   id="polygon51"
   style="fill:#ffd200;fill-opacity:1"
   transform="matrix(1.3924663,0,0,1.3924663,-5523.9632,-7922.9093)" /><path
   class="fil6"
   d="m 9727.9987,11646.896 -9.2321,-70.153 -38.3067,59.277 z m 49.0148,83.784 -38.2928,-8.758 -6.1547,-43.097 -69.679,-15.916 -23.3796,36.288 -37.332,-8.536 107.763,-158.713 37.1371,8.535 z"
   id="path53"
   style="fill:#ffd200;fill-opacity:1;stroke-width:1.39247" /><polygon
   class="fil6"
   points="11040.11,13996.2 11043.8,14096.54 11101.31,14014.65 11127.65,14022.58 11046.57,14132.21 11020.08,14124.23 11013.2,13988.1 "
   id="polygon55"
   style="fill:#ffd200;fill-opacity:1"
   transform="matrix(1.3924663,0,0,1.3924663,-5523.9632,-7922.9093)" /><path
   class="fil6"
   d="m 8395.7844,11639.181 c 4.4977,19.718 12.4765,33.628 23.9504,41.719 11.4322,8.104 24.1593,10.555 38.1675,7.352 14.0361,-3.231 24.3682,-10.889 31.052,-23.059 6.6978,-12.184 7.7143,-28.379 3.1052,-48.556 -4.5951,-19.954 -12.3512,-33.878 -23.3795,-41.676 -10.9866,-7.812 -23.7415,-10.082 -38.251,-6.74 -14.4956,3.287 -25.0366,10.931 -31.6369,22.906 -6.6003,11.976 -7.5889,28.017 -3.0077,48.054 z m -35.9674,9.441 c -4.0939,-17.712 -4.804,-33.21 -2.2697,-46.466 1.9076,-9.803 5.5002,-19.007 10.722,-27.599 5.2635,-8.647 11.5853,-15.568 18.9654,-20.845 9.8029,-7.088 21.7781,-12.254 35.9534,-15.498 25.6632,-5.89 48.0401,-2.604 67.1169,9.789 19.0629,12.393 31.8039,32.764 38.3207,61.129 6.4192,28.142 3.7875,51.883 -7.8257,71.266 -11.6688,19.383 -30.2861,32.013 -55.8797,37.875 -25.9277,5.946 -48.3185,2.744 -67.2282,-9.552 -18.9097,-12.309 -31.5394,-32.361 -37.8751,-60.099 z"
   id="path57"
   style="fill:#ffd200;fill-opacity:1;stroke-width:1.39247" /><polygon
   class="fil6"
   points="11135.13,14138.47 11202.14,14163.97 11194.46,14184.18 11103.22,14149.49 11148.84,14029.51 11237.76,14063.33 11230.06,14083.64 11165.33,14059.02 11155.23,14085.62 11215.46,14108.52 11207.78,14128.73 11147.53,14105.84 "
   id="polygon59"
   style="fill:#ffd200;fill-opacity:1"
   transform="matrix(1.3924663,0,0,1.3924663,-5523.9632,-7922.9093)" /><polygon
   class="fil6"
   points="9883.9,14037.39 9847.59,14048.85 9841.05,14028.15 9938.32,13997.46 9944.86,14018.18 9908.59,14029.61 9940.68,14131.3 9915.99,14139.11 "
   id="polygon61"
   style="fill:#ffd200;fill-opacity:1"
   transform="matrix(1.3924663,0,0,1.3924663,-5523.9632,-7922.9093)" /><polygon
   class="fil6"
   points="11242.07,14181.9 11308.19,14212.87 11299.01,14232.47 11204.62,14188.22 11214.52,14167.05 11310.92,14120.25 11256.78,14094.87 11265.98,14075.21 11351.05,14115.08 11342.51,14133.31 "
   id="polygon63"
   style="fill:#ffd200;fill-opacity:1"
   transform="matrix(1.3924663,0,0,1.3924663,-5523.9632,-7922.9093)" /><path
   class="fil6"
   d="m 8011.2131,11676.235 33.5445,-13.27 35.5636,90.023 c 5.6812,14.3 9.7751,23.421 12.2815,27.292 4.0939,6.252 9.6776,10.374 16.7235,12.309 7.0181,1.992 15.2336,1.156 24.5771,-2.534 9.5662,-3.773 15.9576,-8.578 19.2438,-14.37 3.3141,-5.821 4.2888,-11.739 3.0635,-17.796 -1.2811,-6.071 -4.4698,-15.651 -9.7055,-28.824 l -36.3434,-91.958 33.5724,-13.271 34.5192,87.308 c 7.8814,19.954 12.574,34.436 14.0082,43.389 1.4064,8.926 0.8355,17.211 -1.7823,24.828 -2.6596,7.575 -7.3801,14.69 -14.2171,21.263 -6.837,6.6 -16.821,12.476 -29.9937,17.67 -15.8881,6.28 -28.6291,9.205 -38.2929,8.815 -9.6358,-0.446 -18.0046,-2.646 -25.0783,-6.629 -7.0737,-3.968 -12.6436,-8.87 -16.6957,-14.69 -5.9179,-8.661 -12.6018,-22.28 -19.954,-40.883 z"
   id="path65"
   style="fill:#ffd200;fill-opacity:1;stroke-width:1.39247" /><path
   class="fil6"
   d="m 7969.6479,11814.757 -50.4072,-49.613 6.2382,70.305 z m 90.204,35.843 -35.5775,16.667 -31.3584,-30.147 -64.6939,30.314 3.8849,43.014 -34.6724,16.25 -12.8107,-191.353 34.5611,-16.222 z"
   id="path67"
   style="fill:#ffd200;fill-opacity:1;stroke-width:1.39247" />
  </g></g></g>
  <metadata
   id="CorelCorpID_0Corel-Layer" />
  
 </g>
</svg>
