<?xml version="1.0" encoding="UTF-8" standalone="no"?>
<!-- Generator: Adobe Illustrator 23.1.0, SVG Export Plug-In . SVG Version: 6.00 Build 0)  -->

<svg
   version="1.1"
   id="Layer_1"
   x="0px"
   y="0px"
   viewBox="0 0 1024 1024"
   xml:space="preserve"
   sodipodi:docname="fuel_prices.svg"
   width="1024"
   height="1024"
   inkscape:version="1.1.1 (3bf5ae0d25, 2021-09-20)"
   xmlns:inkscape="http://www.inkscape.org/namespaces/inkscape"
   xmlns:sodipodi="http://sodipodi.sourceforge.net/DTD/sodipodi-0.dtd"
   xmlns="http://www.w3.org/2000/svg"
   xmlns:svg="http://www.w3.org/2000/svg"><defs
   id="defs25">
	
	
	
	
	
</defs><sodipodi:namedview
   id="namedview23"
   pagecolor="#ffffff"
   bordercolor="#666666"
   borderopacity="1.0"
   inkscape:pageshadow="2"
   inkscape:pageopacity="0.0"
   inkscape:pagecheckerboard="0"
   showgrid="false"
   inkscape:zoom="0.49649392"
   inkscape:cx="653.58303"
   inkscape:cy="488.42491"
   inkscape:window-width="1280"
   inkscape:window-height="953"
   inkscape:window-x="-8"
   inkscape:window-y="-8"
   inkscape:window-maximized="1"
   inkscape:current-layer="Layer_1" />
<style
   type="text/css"
   id="style2">
	.st0{fill:#FFD200;}
	.st1{fill:none;stroke:#FFD200;stroke-width:10;stroke-miterlimit:10;}
	.st2{fill:none;stroke:#FFD200;stroke-width:10;stroke-linecap:round;stroke-linejoin:bevel;stroke-miterlimit:10;}
	.st3{fill:none;stroke:#FFD200;stroke-width:10;stroke-linecap:round;stroke-linejoin:round;stroke-miterlimit:10;}
</style>
<g
   id="g6"
   style="fill:#ffd200;fill-opacity:1;stroke:#000000;stroke-width:0;stroke-miterlimit:4;stroke-dasharray:none;stroke-opacity:1"
   transform="matrix(2.3934881,0,0,2.3934881,-138.83276,-123.73285)">
		
	<path
   d="m 191.12626,352.23048 h 81.87009 l -3.33595,7.59412 h -81.87009 z m 0,15.18824 h 75.19821 l -3.33593,7.5941 h -75.19823 z m 87.58764,-28.20411 a 40.124374,37.970595 0 1 0 0,48.81406 v 10.6655 a 48.149246,45.564712 0 1 1 3.39579,-67.2099 z"
   id="path2"
   style="fill:#ffd200;fill-opacity:1;stroke:#000000;stroke-width:0;stroke-miterlimit:4;stroke-dasharray:none;stroke-opacity:1" /></g><g
   id="g10"
   style="stroke-width:6.05315856;stroke-miterlimit:4;stroke-dasharray:none"
   transform="matrix(2.1476391,0,0,2.1476391,-81.070524,-37.473454)">
		<path
   class="st1"
   d="M 320.8,20.5 H 149 c -23.9,0 -43.3,19.4 -43.3,43.3 v 171.5 c 0,4.1 1.5,8.1 4.2,11.2 l 19.2,22.1 4.9,222.6 h 201.8 l 5,-222.6 19.2,-22.1 c 2.7,-3.1 4.2,-7.1 4.2,-11.2 V 63.8 C 364.1,39.9 344.7,20.5 320.8,20.5 Z"
   id="path8"
   style="stroke-width:6.05315856;stroke-miterlimit:4;stroke-dasharray:none" />
	</g><g
   id="g14"
   style="stroke-width:6.05315856;stroke-miterlimit:4;stroke-dasharray:none"
   transform="matrix(2.1476391,0,0,2.1476391,-81.070524,-37.473454)">
		<path
   class="st1"
   d="M 313.2,56.9 H 156.6 c -8.4,0 -15.3,6.8 -15.3,15.3 v 144.6 c 0,8 6.5,14.5 14.5,14.5 H 314 c 8,0 14.5,-6.5 14.5,-14.5 V 72.2 c 0,-8.5 -6.9,-15.3 -15.3,-15.3 z"
   id="path12"
   style="stroke-width:6.05315856;stroke-miterlimit:4;stroke-dasharray:none" />
	</g><path
   class="st2"
   d="m 650.17114,563.43595 c -21.11208,460.02425 393.88486,221.4216 133.29578,-79.6774 -95.41826,-110.17389 -35.18677,-211.97198 13.24679,-262.4415 38.49848,-39.94608 45.94979,-41.44943 73.06431,-64.42917"
   id="path16"
   style="stroke-width:13;stroke-miterlimit:4;stroke-dasharray:none" /><polyline
   class="st3"
   points="388.3,168.8 405.7,172.2 426.5,143.4 413.6,118.2  "
   id="polyline18"
   style="stroke-width:6.47711262;stroke-miterlimit:4;stroke-dasharray:none"
   transform="matrix(1.7720883,0,0,2.2732042,50.175219,-28.514824)" />
</svg>
